<svg xmlns="http://www.w3.org/2000/svg" width="50" height="50" viewBox="0 0 50 50">
  <g fill="none" fill-rule="evenodd">
    <rect width="47" height="47" x="1.5" y="1.5" stroke="#FE0505" stroke-width="3" rx="5"/>
    <path id="svg-github" style="fill:#F80505;" d="M13,25.3044338 C13,30.7398363 16.4380429,35.3519218 21.2065134,36.9789169 C21.8069002,37.0922174 22.0256914,36.7122831 22.0256914,36.3859777 C22.0256914,36.0936624 22.015378,35.3201977 22.0094846,34.2936952 C18.671629,35.0369464 17.9673716,32.6440399 17.9673716,32.6440399 C17.4214985,31.2224964 16.634734,30.8440727 16.634734,30.8440727 C15.5451978,30.0804274 16.7172412,30.0962895 16.7172412,30.0962895 C17.921698,30.1831532 18.555235,31.3644997 18.555235,31.3644997 C19.6263544,33.2445326 21.364161,32.7014455 22.0477915,32.3864702 C22.1568188,31.5911007 22.4669572,31.0495243 22.8095092,30.741347 C20.1449707,30.4309036 17.3434114,29.3756983 17.3434114,24.660887 C17.3434114,23.3171431 17.8111974,22.2188837 18.5788084,21.3585552 C18.4557844,21.0473565 18.0439854,19.7965191 18.6966758,18.1030543 C18.6966758,18.1030543 19.7044415,17.7714615 21.9962246,19.3637112 C22.9538967,19.0910346 23.9800792,18.9543187 25.0003683,18.9497867 C26.0199208,18.9543187 27.0461033,19.0910346 28.0052488,19.3637112 C30.2955585,17.7714615 31.3018509,18.1030543 31.3018509,18.1030543 C31.9560146,19.7965191 31.5442156,21.0473565 31.4211916,21.3585552 C32.1902759,22.2188837 32.6543786,23.3171431 32.6543786,24.660887 C32.6543786,29.3870284 29.8491359,30.4271269 27.1757574,30.7322829 C27.6067098,31.1122172 27.9897787,31.8630219 27.9897787,33.0103782 C27.9897787,34.6555014 27.9757819,35.9826279 27.9757819,36.3859777 C27.9757819,36.7153044 28.1916265,37.0975048 28.8008533,36.9774062 C33.5649038,35.3473898 37,30.7390809 37,25.3044338 C37,18.5086701 31.6267227,13 24.998895,13 C18.3732773,13 13,18.5086701 13,25.3044338 Z"/>
  </g>
</svg>

