<svg xmlns="http://www.w3.org/2000/svg" width="50" height="50" viewBox="0 0 50 50">
  <g fill="none" fill-rule="evenodd" transform="translate(3 3)">
    <path fill="#106DD8" d="M13.5044685,18.4131131 L17.4026341,18.4131131 L17.4026341,31.9987194 L13.5044685,31.9987194 L13.5044685,18.4131131 Z M15.3541863,16.7137918 L15.3259643,16.7137918 C13.9148636,16.7137918 13,15.6752465 13,14.3600973 C13,13.0180561 13.9419097,12 15.3812324,12 C16.8193791,12 17.7036689,13.0154949 17.7318909,14.3562556 C17.7318909,15.6714048 16.8193791,16.7137918 15.3541863,16.7137918 L15.3541863,16.7137918 Z M33,32 L28.5797272,32 L28.5797272,24.9683698 C28.5797272,23.1281854 27.8882879,21.8732232 26.3678269,21.8732232 C25.2048448,21.8732232 24.5580903,22.7196824 24.2570555,23.537969 C24.1441675,23.8299398 24.1618062,24.2384428 24.1618062,24.6482264 L24.1618062,32 L19.7826905,32 C19.7826905,32 19.8391345,19.5451402 19.7826905,18.4131131 L24.1618062,18.4131131 L24.1618062,20.5452683 C24.420508,19.6130106 25.8198495,18.2824946 28.0529163,18.2824946 C30.8233772,18.2824946 33,20.2379306 33,24.4446152 L33,32 L33,32 Z"/>
    <rect width="47" height="47" x="-1.5" y="-1.5" stroke="#106DD8" stroke-width="3" rx="5"/>
  </g>
</svg>
