<svg xmlns="http://www.w3.org/2000/svg" width="50" height="50" viewBox="0 0 50 50">
  <g fill="none" fill-rule="evenodd">
    <path fill="#0077B5" d="M17,21 L21,21 L21,35 L17,35 L17,21 Z M18.4875746,20 L18.4577535,20 C16.9666998,20 16,18.8983972 16,17.5033958 C16,16.0798696 16.9952783,15 18.5161531,15 C20.0357853,15 20.9701789,16.0771529 21,17.4993208 C21,18.8943222 20.0357853,20 18.4875746,20 L18.4875746,20 Z M36,35 L31.6524021,35 L31.6524021,27.8235624 C31.6524021,25.9454817 30.972331,24.6646751 29.4768683,24.6646751 C28.3330071,24.6646751 27.6968861,25.5285661 27.4008007,26.3637043 C27.2897687,26.6616878 27.3071174,27.0786034 27.3071174,27.496826 L27.3071174,35 L23,35 C23,35 23.055516,22.2886482 23,21.1333084 L27.3071174,21.1333084 L27.3071174,23.3093727 C27.5615658,22.3579164 28.9379004,21 31.1342527,21 C33.8591637,21 36,22.9957058 36,27.2890217 L36,35 L36,35 Z"/>
    <rect width="47" height="47" x="1.5" y="1.5" stroke="#0077B5" stroke-width="3" rx="5"/>
  </g>
</svg>
