<svg xmlns="http://www.w3.org/2000/svg" width="21" height="17" viewBox="0 0 21 17">
  <path fill-rule="evenodd" d="M0,1.04166667 C0,0.466370052 0.474276642,0 1.03312824,0 L19.8002051,0 C20.3707861,0 20.8333333,0.46235919 20.8333333,1.04166667 C20.8333333,1.61696328 20.3590567,2.08333333 19.8002051,2.08333333 L1.03312824,2.08333333 C0.462547268,2.08333333 0,1.62097414 0,1.04166667 L0,1.04166667 Z M0,8.33333333 C0,7.75803672 0.474276642,7.29166667 1.03312824,7.29166667 L19.8002051,7.29166667 C20.3707861,7.29166667 20.8333333,7.75402586 20.8333333,8.33333333 C20.8333333,8.90862995 20.3590567,9.375 19.8002051,9.375 L1.03312824,9.375 C0.462547268,9.375 0,8.91264081 0,8.33333333 L0,8.33333333 Z M0,15.625 C0,15.0497034 0.474276642,14.5833333 1.03312824,14.5833333 L19.8002051,14.5833333 C20.3707861,14.5833333 20.8333333,15.0456925 20.8333333,15.625 C20.8333333,16.2002966 20.3590567,16.6666667 19.8002051,16.6666667 L1.03312824,16.6666667 C0.462547268,16.6666667 0,16.2043075 0,15.625 L0,15.625 Z"/>
</svg>
