<svg xmlns="http://www.w3.org/2000/svg" width="157" height="148" viewBox="0 0 157 148">
  <g fill="none" fill-rule="evenodd" transform="translate(1 1)">
    <path stroke="#000" d="M77.5,146 C120.302068,146 155,113.316787 155,73 C155,54.9828116 148.070438,38.4901327 136.584782,25.7576182 C122.369163,9.99877988 101.174231,0 77.5,0 C34.6979319,0 0,32.6832133 0,73 C0,113.316787 34.6979319,146 77.5,146 Z"/>
    <path fill="#000" d="M87.6666667,43 L66.3333333,43 C63.3099733,43 61,45.2930314 61,48.2942173 L61,97.7057827 C61,100.528236 63.3099733,103 66.3333333,103 L87.6666667,103 C90.6900267,103 93,100.528236 93,97.7057827 L93,48.2942173 C93,45.296335 90.6900267,43 87.6666667,43 Z M76.5,101 C74.5744962,101 73,99.4255038 73,97.5 C73,95.5744962 74.5744962,94 76.5,94 C78.4255038,94 80,95.5744962 80,97.5 C80,99.4255038 78.4255038,101 76.5,101 Z M89.9965716,93 L65,93 L65,52 L90,52 L89.9965716,93 Z"/>
  </g>
</svg>
