<svg xmlns="http://www.w3.org/2000/svg" width="157" height="148" viewBox="0 0 157 148">
  <g fill="none" fill-rule="evenodd" transform="translate(1 1)">
    <path stroke="#000" d="M77.5,146 C120.302068,146 155,113.316787 155,73 C155,54.9828116 148.070438,38.4901327 136.584782,25.7576182 C122.369163,9.99877988 101.174231,0 77.5,0 C34.6979319,0 0,32.6832133 0,73 C0,113.316787 34.6979319,146 77.5,146 Z"/>
    <path stroke="#000" stroke-width="3" d="M84.102,56.455 C84.102,59.963 81.258,62.808 77.749,62.808 C74.24,62.808 71.396,59.963 71.396,56.455 C71.396,52.946 74.24,50.101 77.749,50.101 C81.258,50.101 84.102,52.946 84.102,56.455 L84.102,56.455 Z"/>
    <path fill="#000" d="M77.464,103.146 C67.749,103.146 60.424,88.006 60.424,67.928 C60.424,47.851 67.749,32.711 77.464,32.711 C87.179,32.711 94.505,47.851 94.505,67.928 C94.505,88.006 87.179,103.146 77.464,103.146 L77.464,103.146 Z M77.464,38.164 C71.994,38.164 65.877,50.893 65.877,67.928 C65.877,84.964 71.994,97.693 77.464,97.693 C82.945,97.693 89.052,85.47 89.052,67.928 C89.052,50.387 82.945,38.164 77.464,38.164 L77.464,38.164 Z"/>
    <path fill="#000" d="M55.024 100.217C54.744 100.217 54.458 100.188 54.165 100.13 51.921 99.681 50.278 97.582 49.539 94.226 48.911 91.375 48.967 87.802 49.697 84.168 50.963 77.867 54.447 71.086 59.114 71.086 59.405 71.086 59.694 71.115 59.982 71.172 61.673 71.511 63.258 72.916 64.334 75.027 65.791 77.888 66.551 82.676 64.318 87.534 63.903 88.439 63.509 89.314 63.134 90.147 60.411 96.21 58.611 100.217 55.024 100.217L55.024 100.217zM59.256 74.736C57.509 74.736 54.523 78.6 53.261 84.885 52.636 87.99 52.574 91.109 53.089 93.443 53.56 95.577 54.348 96.459 54.88 96.565L55.024 96.581C56.259 96.581 58.15 92.371 59.818 88.657 60.198 87.814 60.594 86.932 61.017 86.014 62.706 82.337 62.165 78.779 61.095 76.676 60.479 75.465 59.731 74.83 59.266 74.736L59.256 74.736 59.256 74.736zM99.024 100.302C95.158 100.302 93.257 95.333 90.85 89.044L90.122 87.156C88.168 82.12 89.188 77.365 90.797 74.594 91.975 72.561 93.566 71.301 95.27 71.046 95.486 71.013 95.705 70.997 95.923 70.997 100.485 70.997 103.891 77.807 104.899 84.534 105.45 88.2 105.329 91.769 104.56 94.586 103.657 97.904 101.912 99.917 99.649 100.256 99.438 100.288 99.23 100.302 99.024 100.302L99.024 100.302zM95.923 74.633C95.353 74.709 94.599 75.286 93.94 76.418 92.756 78.458 92.023 82.005 93.512 85.839L94.244 87.745C95.685 91.51 97.659 96.667 99.024 96.667L99.109 96.659C99.647 96.58 100.479 95.738 101.053 93.629 101.683 91.324 101.774 88.205 101.303 85.074 100.334 78.605 97.517 74.633 95.923 74.633L95.923 74.633z"/>
    <polygon fill="#000" points="64.695 78.843 91.505 78.843 91.505 82.478 64.695 82.478"/>
    <path fill="#000" d="M76.123 105.565C76.123 106.249 76.677 106.803 77.361 106.803 78.044 106.803 78.599 106.249 78.599 105.565 78.599 104.882 78.045 104.328 77.361 104.328 76.677 104.328 76.123 104.882 76.123 105.565M77.98 108.969C77.98 109.653 78.534 110.207 79.217 110.207 79.901 110.207 80.455 109.653 80.455 108.969 80.455 108.286 79.901 107.732 79.217 107.732 78.534 107.732 77.98 108.286 77.98 108.969M75.814 112.373C75.814 113.057 76.368 113.611 77.051 113.611 77.735 113.611 78.289 113.057 78.289 112.373 78.289 111.69 77.735 111.135 77.051 111.135 76.368 111.135 75.814 111.69 75.814 112.373M79.836 112.373C79.836 113.057 80.39 113.611 81.074 113.611 81.758 113.611 82.312 113.057 82.312 112.373 82.312 111.69 81.757 111.135 81.074 111.135 80.39 111.135 79.836 111.69 79.836 112.373M72.1 112.373C72.1 113.057 72.654 113.611 73.338 113.611 74.022 113.611 74.576 113.057 74.576 112.373 74.576 111.69 74.021 111.135 73.338 111.135 72.654 111.135 72.1 111.69 72.1 112.373M76.432 108.969C76.432 108.286 75.878 107.731 75.195 107.732 74.511 107.732 73.957 108.285 73.957 108.969 73.957 109.653 74.511 110.207 75.195 110.207 75.878 110.207 76.432 109.653 76.432 108.969"/>
  </g>
</svg>
