<svg xmlns="http://www.w3.org/2000/svg" width="157" height="148">
  <g fill="none" fill-rule="evenodd">
    <path stroke="#000" d="M79 147c42 0 77-33 77-73 0-18-7-35-18-47A79 79 0 0 0 79 1C36 1 1 34 1 74s35 73 78 73z"/>
    <path stroke="#000" stroke-width="3" d="M85 57a6 6 0 1 1-13 0 6 6 0 0 1 13 0z"/>
    <path fill="#000" d="M78 104c-9 0-17-15-17-35s8-35 17-35c10 0 18 15 18 35s-8 35-18 35zm0-65c-5 0-11 13-11 30s6 30 11 30c6 0 12-13 12-30 0-18-6-30-12-30z"/>
    <path fill="#000" d="M56 101h-1c-2 0-4-2-4-6V85c1-6 4-13 9-13h1l4 4c2 3 3 8 0 13l-1 2c-3 6-4 10-8 10zm4-25c-1 0-4 4-6 10v8l2 4 5-8 1-3c2-4 1-7 0-9l-2-2zm40 25c-4 0-6-5-8-11l-1-2c-2-5-1-10 1-12l4-4h1c4 0 8 7 9 14v10c-1 3-3 5-5 5h-1zm-3-25l-2 1c-1 2-2 6 0 10v2l5 9 2-3v-9c-1-6-3-10-5-10z"/>
    <path fill="#000" d="M66 80h27v3H66zm11 27a1 1 0 1 0 3 0 1 1 0 0 0-3 0m2 3a1 1 0 1 0 2 0 1 1 0 0 0-2 0m-2 3a1 1 0 1 0 2 0 1 1 0 0 0-2 0m4 0a1 1 0 1 0 2 0 1 1 0 0 0-2 0m-8 0a1 1 0 1 0 3 0 1 1 0 0 0-3 0m4-3a1 1 0 1 0-2 0 1 1 0 0 0 2 0"/>
  </g>
</svg>
