<svg xmlns="http://www.w3.org/2000/svg" width="157" height="148" viewBox="0 0 157 148">
  <g fill="none" fill-rule="evenodd" transform="translate(1 1)">
    <path stroke="#000" d="M77.5,146 C120.302068,146 155,113.316787 155,73 C155,54.9828116 148.070438,38.4901327 136.584782,25.7576182 C122.369163,9.99877988 101.174231,0 77.5,0 C34.6979319,0 0,32.6832133 0,73 C0,113.316787 34.6979319,146 77.5,146 Z"/>
    <path fill="#000" fill-rule="nonzero" d="M5.83495235,32.656635 C11.3476202,38.1693028 19.5940267,39.7009974 26.6517933,36.7106172 L24.1501002,36.2234855 L42.2588182,54.3322035 C43.1492135,55.2225988 44.5928297,55.2225988 45.4832251,54.3322035 L54.3322035,45.4832251 C55.2225988,44.5928297 55.2225988,43.1492135 54.3322035,42.2588182 L36.2234855,24.1501002 L36.7106172,26.6517933 C39.7009974,19.5940267 38.1693028,11.3476202 32.656635,5.83495235 C27.1439671,0.322284502 18.8975606,-1.20941012 11.839794,1.78097008 C10.3508899,2.4118197 9.97366276,4.3490913 11.1170802,5.49250871 L19.2748767,13.6503052 L18.663989,11.5318746 L17.0227025,18.7395665 L18.7395665,17.0227025 L11.5318746,18.663989 L13.6503052,19.2748767 L5.49250871,11.1170802 C4.3490913,9.97366276 2.4118197,10.3508899 1.78097008,11.839794 C-1.20941012,18.8975606 0.322284502,27.1439671 5.83495235,32.656635 L5.83495235,32.656635 L5.83495235,32.656635 Z M9.05935927,29.432228 C4.87151939,25.2443881 3.70800274,18.9801948 5.97964042,13.6187733 L2.26810179,14.3414871 L10.4258983,22.4992836 C10.9801056,23.0534909 11.7801242,23.2841907 12.5443289,23.1101712 L19.7520208,21.4688848 C20.6067786,21.2742451 21.2742451,20.6067786 21.4688848,19.7520208 L23.1101712,12.5443289 C23.2841907,11.7801242 23.0534909,10.9801056 22.4992836,10.4258983 L14.3414871,2.26810179 L13.6187733,5.97964042 C18.9801948,3.70800274 25.2443881,4.87151939 29.432228,9.05935927 C33.6200679,13.2471992 34.7835846,19.5113925 32.5119469,24.872814 C32.1495672,25.7280869 32.3422641,26.7176926 32.9990786,27.3745071 L51.1077965,45.4832251 L51.1077965,42.2588182 L42.2588182,51.1077965 L45.4832251,51.1077965 L27.3745071,32.9990786 C26.7176926,32.3422641 25.7280869,32.1495672 24.872814,32.5119469 C19.5113925,34.7835846 13.2471992,33.6200679 9.05935927,29.432228 L9.05935927,29.432228 L9.05935927,29.432228 Z" transform="translate(50 46)"/>
  </g>
</svg>
