<svg xmlns="http://www.w3.org/2000/svg" width="157" height="148">
  <g fill="none" fill-rule="evenodd">
    <path stroke="#000" d="M79 147c42 0 77-33 77-73 0-18-7-35-18-47A79 79 0 0 0 79 1C36 1 1 34 1 74s35 73 78 73z"/>
    <path fill="#000" fill-rule="nonzero" d="M57 80c5 5 14 7 21 4l-3-1 18 18h3l9-9v-3L87 71l1 3a19 19 0 0 0-25-25c-2 0-2 2-1 3l8 9v-2l-2 7 2-2-7 2h2l-9-8c-1-1-3-1-3 1-3 7-2 15 4 21zm3-4c-4-4-5-10-3-15h-4l8 8 3 1 7-2 1-1 2-7-1-3-8-8v4a14 14 0 0 1 19 19v2l18 18v-3l-9 9h3L78 80h-2c-5 2-12 1-16-4z"/>
  </g>
</svg>
