<svg xmlns="http://www.w3.org/2000/svg" width="20" height="16" viewBox="0 0 20 16">
  <path fill="#333" fill-rule="evenodd" d="M0,1 C0,0.44771525 0.455305576,0 0.99180311,0 L19.0081969,0 C19.5559546,0 20,0.443864822 20,1 C20,1.55228475 19.5446944,2 19.0081969,2 L0.99180311,2 C0.444045377,2 0,1.55613518 0,1 L0,1 Z M0,8 C0,7.44771525 0.455305576,7 0.99180311,7 L19.0081969,7 C19.5559546,7 20,7.44386482 20,8 C20,8.55228475 19.5446944,9 19.0081969,9 L0.99180311,9 C0.444045377,9 0,8.55613518 0,8 L0,8 Z M0,15 C0,14.4477153 0.455305576,14 0.99180311,14 L19.0081969,14 C19.5559546,14 20,14.4438648 20,15 C20,15.5522847 19.5446944,16 19.0081969,16 L0.99180311,16 C0.444045377,16 0,15.5561352 0,15 L0,15 Z"/>
</svg>
