<svg xmlns="http://www.w3.org/2000/svg" xmlns:xlink="http://www.w3.org/1999/xlink" width="22" height="18"><defs><path id="a" d="M1.19 0h21.62C23.467 0 24 .444 24 1c0 .552-.546 1-1.19 1H1.19C.533 2 0 1.556 0 1c0-.552.546-1 1.19-1zM0 17c0-.552.546-1 1.19-1h21.62c.657 0 1.19.444 1.19 1 0 .552-.546 1-1.19 1H1.19C.533 18 0 17.556 0 17zm0-8c0-.552.546-1 1.19-1h21.62c.657 0 1.19.444 1.19 1 0 .552-.546 1-1.19 1H1.19C.533 10 0 9.556 0 9z"/><filter id="b" width="116.7%" height="122.2%" x="-8.3%" y="-11.1%" filterUnits="objectBoundingBox"><feComposite in="shadowOffsetInner1" in2="SourceAlpha" k2="-1" k3="1" operator="arithmetic" result="shadowInnerInner1"/><feColorMatrix in="shadowInnerInner1" values="0 0 0 0 0 0 0 0 0 0 0 0 0 0 0 0 0 0 0.5 0"/></filter></defs><g fill="#4c8ba6" fill-rule="evenodd" transform="translate(-1)"><use xlink:href="#a"/><use filter="url(#b)" xlink:href="#a"/></g></svg>
