<svg xmlns="http://www.w3.org/2000/svg" style="display:none;" >
    <defs>
        <symbol id="mobile" viewBox="0 0 238 238" fill="none" fill-rule="evenodd">
          <path stroke="#333" d="M119,237 C184.1696,237 237,184.1696 237,119 C237,89.8763257 226.449183,63.2169268 208.961346,42.635602 C187.316919,17.1624113 155.045926,1 119,1 C53.8303995,1 1,53.8303995 1,119 C1,184.1696 53.8303995,237 119,237 Z"/>
          <path fill="#333" d="M137.833333,67 L101.166667,67 C95.9702667,67 92,70.9411477 92,76.099436 L92,161.025564 C92,165.876655 95.9702667,170.125 101.166667,170.125 L137.833333,170.125 C143.029733,170.125 147,165.876655 147,161.025564 L147,76.099436 C147,70.9468258 143.029733,67 137.833333,67 Z M119.015625,167.03125 C115.706165,167.03125 113,164.325085 113,161.015625 C113,157.706165 115.706165,155 119.015625,155 C122.325085,155 125.03125,157.706165 125.03125,161.015625 C125.03125,164.325085 122.325085,167.03125 119.015625,167.03125 Z M141.962857,153.46875 L99,153.46875 L99,83 L141.96875,83 L141.962857,153.46875 Z"/>
        </symbol>
        <symbol id="rocket" viewBox="0 0 238 238" fill="none" fill-rule="evenodd">
          <path stroke="#333" d="M119,237 C184.1696,237 237,184.1696 237,119 C237,89.8763257 226.449183,63.2169268 208.961346,42.635602 C187.316919,17.1624113 155.045926,1 119,1 C53.8303995,1 1,53.8303995 1,119 C1,184.1696 53.8303995,237 119,237 Z"/>
          <g transform="translate(19 -30)">
            <path stroke="#333" stroke-width="3" d="M106,125.50059 C106,129.641615 102.642531,133 98.5,133 C94.3574689,133 91,129.641615 91,125.50059 C91,121.358385 94.3574689,118 98.5,118 C102.642531,118 106,121.358385 106,125.50059 L106,125.50059 Z"/>
            <path fill="#333" d="M99.9993545,188 C87.4568821,188 78,168.654504 78,142.999361 C78,117.345496 87.4568821,98 99.9993545,98 C112.541827,98 122,117.345496 122,142.999361 C122,168.654504 112.541827,188 99.9993545,188 L99.9993545,188 Z M99.9993545,104.967701 C92.9373551,104.967701 85.0400516,121.232484 85.0400516,142.999361 C85.0400516,164.767516 92.9373551,181.032299 99.9993545,181.032299 C107.075555,181.032299 114.959948,165.41407 114.959948,142.999361 C114.959948,120.58593 107.075555,104.967701 99.9993545,104.967701 L99.9993545,104.967701 Z"/>
            <path fill="#333" d="M72.1229163 181C71.7859311 181 71.4417249 180.964162 71.089094 180.892486 68.3883988 180.337613 66.4110181 177.743675 65.521618 173.596341 64.7658085 170.073084 64.8332055 165.657581 65.7117739 161.166695 67.2354282 153.379939 71.4284862 145 77.0453064 145 77.3955302 145 77.743347 145.035838 78.0899603 145.106279 80.1251099 145.525214 82.0326865 147.261508 83.3276723 149.870276 85.0811985 153.405891 85.9958725 159.322886 83.308416 165.326388 82.8089558 166.444784 82.3347696 167.526106 81.8834502 168.555525 78.6062697 176.048162 76.4399366 181 72.1229163 181L72.1229163 181zM77.216206 149.510659C75.1136594 149.510659 71.5199536 154.285778 70.0011134 162.052762 69.2489144 165.889911 69.1742963 169.744362 69.7941082 172.628712 70.3609654 175.265902 71.3093378 176.355875 71.9496096 176.48687L72.1229163 176.506642C73.6092614 176.506642 75.8851147 171.303937 77.8925833 166.714188 78.3499203 165.672411 78.8265136 164.582438 79.3356018 163.447976 81.3683444 158.903951 80.7172409 154.506986 79.4294763 151.908105 78.688109 150.411555 77.7878772 149.626824 77.2282412 149.510659L77.216206 149.510659 77.216206 149.510659zM127.704858 181C123.167338 181 120.936136 174.895786 118.111042 167.170005L117.256589 164.850674C114.963181 158.664153 116.160354 152.822829 118.048836 149.418768 119.431453 146.92131 121.298809 145.373452 123.298792 145.060195 123.552311 145.019655 123.809351 145 124.065218 145 129.419633 145 133.417252 153.365808 134.600341 161.629654 135.247049 166.133185 135.105031 170.517557 134.202457 173.978127 133.142606 178.054155 131.094501 180.527043 128.43842 180.943491 128.19077 180.982802 127.94664 181 127.704858 181L127.704858 181zM124.065218 149.466678C123.396209 149.560041 122.51124 150.268862 121.737772 151.659478 120.348112 154.165535 119.487791 158.52288 121.235429 163.232793L122.094577 165.574236C123.785877 170.199386 126.102759 176.53455 127.704858 176.53455L127.804623 176.524723C128.436073 176.427674 129.412591 175.393312 130.086294 172.802491 130.825724 169.970892 130.932531 166.139328 130.379719 162.293022 129.242404 154.346118 125.936094 149.466678 124.065218 149.466678L124.065218 149.466678z"/>
            <polygon fill="#333" points="84 156 116 156 116 160 84 160"/>
            <path fill="#333" d="M100.5 192C100.818322 192 101.113697 191.900641 101.356678 191.731174 101.745378 191.460077 102 191.009568 102 190.499394 102 189.671515 101.328756 189 100.5 189 99.6712439 189 99 189.671515 99 190.499394 99 191.328485 99.6712439 192 100.5 192zM103.499394 196C104.328485 196 105 195.328485 105 194.499394 105 193.671515 104.328485 193 103.499394 193 102.671515 193 102 193.671515 102 194.499394 102 195.328485 102.671515 196 103.499394 196zM99 198.5C99 199.328756 99.6715152 200 100.499394 200 101.328485 200 102 199.328756 102 198.5 102 197.672456 101.328485 197 100.499394 197 99.6715152 197 99 197.672456 99 198.5M105 198.5C105 199.328756 105.671244 200 106.5 200 107.328756 200 108 199.328756 108 198.5 108 197.672456 107.327544 197 106.5 197 105.671244 197 105 197.672456 105 198.5M94.5 200C95.3287561 200 96 199.328756 96 198.5 96 197.672456 95.3275444 197 94.5 197 93.6712439 197 93 197.672456 93 198.5 93 199.328756 93.6712439 200 94.5 200zM99 194.499395C99 193.671516 98.3284848 192.99879 97.5006061 193.000002 96.6715152 193.000002 96 193.670304 96 194.499395 96 195.328485 96.6715152 196 97.5006061 196 98.3284848 196 99 195.328485 99 194.499395"/>
          </g>
        </symbol>
        <symbol id="tool" viewBox="0 0 238 238" fill="none" fill-rule="evenodd">
          <path stroke="#333" d="M119,237 C184.1696,237 237,184.1696 237,119 C237,89.8763257 226.449183,63.2169268 208.961346,42.635602 C187.316919,17.1624113 155.045926,1 119,1 C53.8303995,1 1,53.8303995 1,119 C1,184.1696 53.8303995,237 119,237 Z"/>
          <path fill="#333" fill-rule="nonzero" d="M8.12431472,60.3529447 C16.1834298,70.6283165 28.2390699,73.4833282 38.5570059,67.9093903 L34.8997144,67.0013981 L61.3733288,100.755256 C62.6750214,102.414915 64.7854821,102.414915 66.0871747,100.755256 L79.0237306,84.2611477 C80.3254231,82.6014897 80.3254231,79.9106523 79.0237306,78.2509942 L52.5501162,44.4971359 L53.2622669,49.1601825 C57.6339829,36.0048141 55.394758,20.6338731 47.3356429,10.3585013 C39.2765278,0.0831294826 27.2208877,-2.77188231 16.9029517,2.8020556 C14.7262834,3.9779317 14.1748051,7.58892126 15.8463973,9.7202013 L27.772496,24.9259772 L26.8794232,20.9773152 L24.479983,34.4121377 L26.9899119,31.2119784 L16.4527962,34.2712646 L19.549786,35.4099324 L7.6236873,20.2041565 C5.95209511,18.0728765 3.11994643,18.7760113 2.19769067,21.5512635 C-2.17402534,34.7066318 0.0651995942,50.0775729 8.12431472,60.3529447 L8.12431472,60.3529447 L8.12431472,60.3529447 Z M12.8381606,54.3427912 C6.71584656,46.5368408 5.01487075,34.8606583 8.33583805,24.8672031 L2.90984142,26.21431 L14.8359402,41.4200859 C15.6461505,42.4531041 16.8157189,42.8831185 17.93293,42.5587538 L28.4700457,39.4994676 C29.7196388,39.1366678 30.6954257,37.8925395 30.9799746,36.2993082 L33.3794147,22.8644857 C33.6338184,21.4400417 33.2965523,19.9488419 32.4863419,18.9158237 L20.5602432,3.71004781 L19.5036887,10.6281935 C27.3416928,6.39396021 36.499483,8.56270437 42.621797,16.3686548 C48.744111,24.1746052 50.4450868,35.8507877 47.1241196,45.8442429 C46.5943472,47.438434 46.8760558,49.2830159 47.8362703,50.5072894 L74.3098847,84.2611477 L74.3098847,78.2509942 L61.3733288,94.745103 L66.0871747,94.745103 L39.6135603,60.9912446 C38.6533458,59.7669711 37.2066149,59.4077926 35.9562689,60.0832524 C28.1182648,64.3174857 18.9604746,62.1487416 12.8381606,54.3427912 L12.8381606,54.3427912 L12.8381606,54.3427912 Z" transform="translate(79 68)"/>
        </symbol>
        <symbol id="triangle" viewBox="0 0 27 23">
          <polygon fill-rule="evenodd" points="13.5 0 27 23 0 23" />
        </symbol>
        <symbol id="jh-logo" viewBox="0 0 24 24" fill="none" fill-rule="evenodd">
          <rect width="22" height="22" x="1" y="1" stroke="#fff" stroke-width="2" rx="4"/>
          <text fill="#fff" font-family="Futura-Medium, Futura" font-size="10" font-weight="400" letter-spacing=".5">
            <tspan x="7.208" y="16">Jh</tspan>
          </text>
        </symbol>
        <symbol id="mail" viewBox="0 0 29 30">
          <g fill="none" fill-rule="evenodd" transform="translate(0 1)">
            <circle cx="14.292" cy="14" r="13.78" fill="#fcf7e7" fill-rule="nonzero" />
            <g stroke="#43484D" stroke-width="1.3" opacity=".94" transform="translate(7.292 8.458)">
              <path d="M0.583333333,0.583333333 L5.61516667,5.82633333 C5.98929581,6.20647298 6.50101242,6.41952633 7.03437294,6.41722026 C7.56773346,6.4149142 8.07758864,6.19744392 8.44841667,5.81408333 L13.4166667,0.6195 M13.4166667,10.5 L9.33333333,5.25 M0.583333333,10.5 L5.25,5.25"/>
              <rect width="14" height="11.083" rx="2"/>
            </g>
          </g>
        </symbol>
    </defs>
</svg>
