<svg xmlns="http://www.w3.org/2000/svg" style="display:none;" >
    <defs>
        <symbol id="mobile" viewBox="0 0 263 238" fill="none" fill-rule="evenodd">
            <path stroke="#000" d="M131.5,237 C203.57316,237 262,184.1696 262,119 C262,89.8763257 250.331511,63.2169268 230.99115,42.635602 C207.053881,17.1624113 171.364351,1 131.5,1 C59.4268402,1 1,53.8303995 1,119 C1,184.1696 59.4268402,237 131.5,237 Z"/>
            <path fill="#000" d="M149.833333,67 L113.166667,67 C107.970267,67 104,70.9411477 104,76.099436 L104,161.025564 C104,165.876655 107.970267,170.125 113.166667,170.125 L149.833333,170.125 C155.029733,170.125 159,165.876655 159,161.025564 L159,76.099436 C159,70.9468258 155.029733,67 149.833333,67 Z M130.640625,166.6875 C127.331165,166.6875 124.625,163.981335 124.625,160.671875 C124.625,157.362415 127.331165,154.65625 130.640625,154.65625 C133.950085,154.65625 136.65625,157.362415 136.65625,160.671875 C136.65625,163.981335 133.950085,166.6875 130.640625,166.6875 Z M153.837857,152.9375 L110.875,152.9375 L110.875,82.46875 L153.84375,82.46875 L153.837857,152.9375 Z"/>
        </symbol>
        <symbol id="rocket" viewBox="0 0 263 238" fill="none" fill-rule="evenodd">
            <path stroke="#000" d="M131.5,237 C203.57316,237 262,184.1696 262,119 C262,89.8763257 250.331511,63.2169268 230.99115,42.635602 C207.053881,17.1624113 171.364351,1 131.5,1 C59.4268402,1 1,53.8303995 1,119 C1,184.1696 59.4268402,237 131.5,237 Z"/>
            <g transform="translate(92 61)">
                <path stroke="#000" stroke-width="3" d="M49.2659649,34.322807 C49.2659649,39.2463158 45.274386,43.2392982 40.3494737,43.2392982 C35.4245614,43.2392982 31.4329825,39.2463158 31.4329825,34.322807 C31.4329825,29.3978947 35.4245614,25.4049123 40.3494737,25.4049123 C45.274386,25.4049123 49.2659649,29.3978947 49.2659649,34.322807 L49.2659649,34.322807 Z"/>
                <path fill="#000" d="M39.9494737,99.8540351 C26.314386,99.8540351 16.0336842,78.6049123 16.0336842,50.4252632 C16.0336842,22.2470175 26.314386,0.997894737 39.9494737,0.997894737 C53.5845614,0.997894737 63.8666667,22.2470175 63.8666667,50.4252632 C63.8666667,78.6049123 53.5845614,99.8540351 39.9494737,99.8540351 L39.9494737,99.8540351 Z M39.9494737,8.65122807 C32.2722807,8.65122807 23.6870175,26.5164912 23.6870175,50.4252632 C23.6870175,74.3354386 32.2722807,92.2007018 39.9494737,92.2007018 C47.6421053,92.2007018 56.2133333,75.045614 56.2133333,50.4252632 C56.2133333,25.8063158 47.6421053,8.65122807 39.9494737,8.65122807 L39.9494737,8.65122807 Z"/>
                <path fill="#000" d="M8.45473684 95.7431579C8.06175439 95.7431579 7.66035088 95.7024561 7.24912281 95.6210526 4.09964912 94.9908772 1.79368421 92.0449123.756491228 87.3347368-.124912281 83.3333333-.0463157895 78.3185965.978245614 73.2182456 2.75508772 64.3747368 7.64491228 54.8575439 14.1950877 54.8575439 14.6035088 54.8575439 15.0091228 54.8982456 15.4133333 54.9782456 17.7866667 55.4540351 20.0112281 57.4259649 21.5214035 60.3887719 23.5663158 64.4042105 24.6329825 71.1242105 21.4989474 77.9424561 20.9164912 79.2126316 20.3635088 80.4407018 19.837193 81.6098246 16.0154386 90.1192982 13.4891228 95.7431579 8.45473684 95.7431579L8.45473684 95.7431579zM14.394386 59.9803509C11.9424561 59.9803509 7.75157895 65.4035088 5.98035088 74.2245614 5.10315789 78.5824561 5.01614035 82.96 5.73894737 86.2357895 6.4 89.2308772 7.50596491 90.4687719 8.25263158 90.6175439L8.45473684 90.64C10.1880702 90.64 12.8421053 84.7312281 15.1831579 79.5185965 15.7164912 78.3354386 16.2722807 77.0975439 16.8659649 75.8091228 19.2364912 70.6484211 18.477193 65.6547368 16.9754386 62.7031579 16.1108772 61.0035088 15.0610526 60.1122807 14.4084211 59.9803509L14.394386 59.9803509 14.394386 59.9803509zM70.2091228 95.8624561C64.7831579 95.8624561 62.1150877 88.8884211 58.7368421 80.0617544L57.7150877 77.4119298C54.9726316 70.3438596 56.4042105 63.6701754 58.6624561 59.7810526 60.3157895 56.9277193 62.5487719 55.1592982 64.9403509 54.8014035 65.2435088 54.7550877 65.5508772 54.7326316 65.8568421 54.7326316 72.2596491 54.7326316 77.04 64.2905263 78.4547368 73.7319298 79.2280702 78.877193 79.0582456 83.8863158 77.9789474 87.84 76.7115789 92.4968421 74.2624561 95.3221053 71.0863158 95.7978947 70.7901754 95.842807 70.4982456 95.8624561 70.2091228 95.8624561L70.2091228 95.8624561zM65.8568421 59.8357895C65.0568421 59.9424561 63.9985965 60.7522807 63.0736842 62.3410526 61.4119298 65.2042105 60.3831579 70.1824561 62.4729825 75.5635088L63.5003509 78.2385965C65.522807 83.522807 68.2933333 90.7607018 70.2091228 90.7607018L70.3284211 90.7494737C71.0835088 90.6385965 72.2512281 89.4568421 73.0568421 86.4968421 73.9410526 83.2617544 74.0687719 78.8842105 73.4077193 74.4898246 72.0477193 65.4105263 68.0940351 59.8357895 65.8568421 59.8357895L65.8568421 59.8357895z"/>
                <polygon fill="#000" points="22.028 65.745 59.656 65.745 59.656 70.846 22.028 70.846"/>
                <path fill="#000" d="M38.0673684 103.249123C38.0673684 104.209123 38.8449123 104.986667 39.8049123 104.986667 40.7635088 104.986667 41.5424561 104.209123 41.5424561 103.249123 41.5424561 102.290526 40.7649123 101.512982 39.8049123 101.512982 38.8449123 101.512982 38.0673684 102.290526 38.0673684 103.249123M40.6736842 108.026667C40.6736842 108.986667 41.4512281 109.764211 42.4098246 109.764211 43.3698246 109.764211 44.1473684 108.986667 44.1473684 108.026667 44.1473684 107.06807 43.3698246 106.290526 42.4098246 106.290526 41.4512281 106.290526 40.6736842 107.06807 40.6736842 108.026667M37.6336842 112.804211C37.6336842 113.764211 38.4112281 114.541754 39.3698246 114.541754 40.3298246 114.541754 41.1073684 113.764211 41.1073684 112.804211 41.1073684 111.845614 40.3298246 111.066667 39.3698246 111.066667 38.4112281 111.066667 37.6336842 111.845614 37.6336842 112.804211M43.2785965 112.804211C43.2785965 113.764211 44.0561404 114.541754 45.0161404 114.541754 45.9761404 114.541754 46.7536842 113.764211 46.7536842 112.804211 46.7536842 111.845614 45.9747368 111.066667 45.0161404 111.066667 44.0561404 111.066667 43.2785965 111.845614 43.2785965 112.804211M32.4210526 112.804211C32.4210526 113.764211 33.1985965 114.541754 34.1585965 114.541754 35.1185965 114.541754 35.8961404 113.764211 35.8961404 112.804211 35.8961404 111.845614 35.117193 111.066667 34.1585965 111.066667 33.1985965 111.066667 32.4210526 111.845614 32.4210526 112.804211M38.5010526 108.026667C38.5010526 107.06807 37.7235088 106.289123 36.7649123 106.290526 35.8049123 106.290526 35.0273684 107.066667 35.0273684 108.026667 35.0273684 108.986667 35.8049123 109.764211 36.7649123 109.764211 37.7235088 109.764211 38.5010526 108.986667 38.5010526 108.026667"/>
            </g>
        </symbol>
        <symbol id="tool" viewBox="0 0 263 238" fill="none" fill-rule="evenodd">
            <path fill="#000" fill-rule="nonzero" d="M94.4445159,127.660903 C103.813237,136.626668 117.827919,139.117806 129.822519,134.254272 L125.570918,133.462004 L156.346495,162.9139 C157.859712,164.362033 160.313123,164.362033 161.826341,162.9139 L176.865087,148.521982 C178.378304,147.073849 178.378304,144.725961 176.865087,143.277828 L146.08951,113.825932 L146.917385,117.894669 C151.999505,106.415965 149.396406,93.0040657 140.027685,84.0383001 C130.658964,75.0725345 116.644282,72.5813968 104.649681,77.4449309 C102.119304,78.4709404 101.478211,81.6217058 103.421437,83.4813521 L117.285527,96.749137 L116.247329,93.3037358 L113.45798,105.026277 L116.375773,102.233981 L104.126376,104.903358 L107.726626,105.896902 L93.8625365,92.629117 C91.9193106,90.7694707 88.6269377,91.3829903 87.5548154,93.8045338 C82.4726955,105.283238 85.0757945,118.695137 94.4445159,127.660903 L94.4445159,127.660903 L94.4445159,127.660903 Z M99.9243617,122.416749 C92.8071716,115.605675 90.8297872,105.417633 94.6904117,96.6978537 L88.3826907,97.8732705 L102.24678,111.141055 C103.18865,112.042414 104.548273,112.417623 105.847031,112.134599 L118.096428,109.465222 C119.54908,109.148661 120.683432,108.063098 121.01422,106.672926 L123.80357,94.9503846 C124.099314,93.7074873 123.707242,92.4063425 122.765372,91.5049834 L108.901283,78.2371986 L107.673038,84.2736198 C116.784718,80.5790437 127.430649,82.4713793 134.547839,89.2824537 C141.665029,96.093528 143.642413,106.28157 139.781789,115.001349 C139.165929,116.392359 139.493415,118.001847 140.609664,119.070086 L171.385241,148.521982 L171.385241,143.277828 L156.346495,157.669747 L161.826341,157.669747 L131.050764,128.217851 C129.934514,127.149612 128.25269,126.836211 126.799163,127.425583 C117.687483,131.120159 107.041552,129.227824 99.9243617,122.416749 L99.9243617,122.416749 L99.9243617,122.416749 Z"/>
            <path stroke="#000" d="M131.5,237 C203.57316,237 262,184.1696 262,119 C262,89.8763257 250.331511,63.2169268 230.99115,42.635602 C207.053881,17.1624113 171.364351,1 131.5,1 C59.4268402,1 1,53.8303995 1,119 C1,184.1696 59.4268402,237 131.5,237 Z"/>
        </symbol>
        <symbol id="triangle" viewBox="0 0 27 23">
            <polygon fill-rule="evenodd" points="13.5 0 27 23 0 23" />
        </symbol>
        <symbol id="jh-logo" viewBox="0 0 24 24" fill="none" fill-rule="evenodd">
            <rect width="22" height="22" x="1" y="1" stroke="#fff" stroke-width="2" rx="4"/>
            <text fill="#fff" font-family="Futura-Medium, Futura" font-size="10" font-weight="400" letter-spacing=".5">
                <tspan x="7.208" y="16">Jh</tspan>
            </text>
        </symbol>
        <symbol id="mail" viewBox="0 0 29 30">
          <g fill="none" fill-rule="evenodd" transform="translate(0 1)">
            <circle cx="14.292" cy="14" r="13.78" fill="#DBE9D8" fill-rule="nonzero" />
            <g stroke="#43484D" stroke-width="1.3" opacity=".94" transform="translate(7.292 8.458)">
              <path d="M0.583333333,0.583333333 L5.61516667,5.82633333 C5.98929581,6.20647298 6.50101242,6.41952633 7.03437294,6.41722026 C7.56773346,6.4149142 8.07758864,6.19744392 8.44841667,5.81408333 L13.4166667,0.6195 M13.4166667,10.5 L9.33333333,5.25 M0.583333333,10.5 L5.25,5.25"/>
              <rect width="14" height="11.083" rx="2"/>
            </g>
          </g>
        </symbol>
    </defs>
</svg>
