<svg xmlns="http://www.w3.org/2000/svg" xmlns:xlink="http://www.w3.org/1999/xlink" width="45" height="64"><defs><path id="a" d="M0 0h45v51H0z"/></defs><g fill="none" fill-rule="evenodd"><g transform="translate(0 13)"><mask id="b" fill="#fff"><use xlink:href="#a"/></mask><path fill="#3E5293" d="M22 51L4 46 0 0h45l-4 46-19 5" mask="url(#b)"/></g><path fill="#455D9B" d="M37 56l4-40H22v44l15-4"/><path fill="#EBEBE7" d="M23 48l-7-2v-4h-6l1 9 12 3v-6zM8 22l1 5h14v-5H8zm1 11l1 6h13v-6H9z"/><path fill="#0A0B09" d="M27 0h7v2h-4v1h4v6h-7V6h4-4V0zm-8 0h7v2h-4v1h4v6h-7V6h4-4V0zm-8 0h6v3h-4v3h4v3h-6V0z"/><path fill="#FFFFFE" d="M36 33l1-11H22v5h8v6h-8v6h7v7l-7 2v6l12-3 1-16 1-2"/></g></svg>