<svg xmlns="http://www.w3.org/2000/svg" xmlns:xlink="http://www.w3.org/1999/xlink" width="45" height="64" viewBox="0 0 45 64">
  <defs>
    <polygon id="css3-a" points=".002 .01 44.992 .01 44.992 51 .002 51"/>
  </defs>
  <g fill="none" fill-rule="evenodd">
    <g transform="translate(0 12.545)">
      <mask id="css3-b" fill="#fff">
        <use xlink:href="#css3-a"/>
      </mask>
      <polyline fill="#3E5293" points="22.469 51 4.095 45.903 0 .01 44.992 .01 40.893 45.896 22.469 51" mask="url(#css3-b)"/>
    </g>
    <polyline fill="#455D9B" points="37.156 55.6 40.636 16.364 22.364 16.364 22.364 59.727 37.156 55.6"/>
    <path fill="#EBEBE7" d="M22.6363636,47.8575443 L22.6115591,47.8639137 L16.3128732,46.1694146 L15.9101705,41.6754635 L10.2326971,41.6754635 L11.0249842,50.5229855 L22.6103317,53.7272727 L22.6363636,53.7201391 L22.6363636,47.8575443 Z M8.45454545,21.8181818 L8.96863831,27.4529835 L22.6363636,27.4529835 L22.6363636,21.8181818 L8.45454545,21.8181818 Z M9.4731418,33.2230954 L9.9799723,38.8579226 L22.6363636,38.8579226 L22.6363636,33.2230954 L9.4731418,33.2230954 Z"/>
    <path fill="#0A0B09" d="M26.9998952,0 L33.8181818,0 L33.8181818,2.49350649 L29.8513684,2.49350649 L29.8513684,2.99218219 L33.8181818,2.99218219 L33.8181818,8.72727273 L26.9998952,8.72727273 L26.9998952,6.10879653 L30.9669631,6.10879653 L30.9669631,5.61012083 L27.0001497,5.61012083 L27.0001497,0 L26.9998952,0 Z M18.818104,0 L25.6361361,0 L25.6361361,2.49350649 L21.6693736,2.49350649 L21.6693736,2.99218219 L25.6361361,2.99218219 L25.6361361,8.72727273 L18.8182821,8.72727273 L18.8182821,6.10879653 L22.7851464,6.10879653 L22.7851464,5.61012083 L18.8179258,5.61012083 L18.8179258,0 L18.818104,0 Z M10.6363636,0 L17.4543448,0 L17.4543448,2.86754527 L13.4876587,2.86754527 L13.4876587,5.73509053 L17.4546757,5.73509053 L17.4546757,8.60248221 L10.6363636,8.60248221 L10.6363636,0 Z"/>
    <polyline fill="#FFFFFE" points="35.524 33.224 36.545 21.818 22.364 21.818 22.364 27.453 30.341 27.453 29.826 33.224 22.364 33.224 22.364 38.859 29.335 38.859 28.678 46.168 22.364 47.864 22.364 53.727 33.97 50.526 35.386 34.737 35.524 33.224"/>
  </g>
</svg>
