<svg xmlns="http://www.w3.org/2000/svg" width="256" height="192" preserveAspectRatio="xMidYMid" version="1">
  <path fill="#CD6799" d="M220 111c-9 0-16 2-23 5-2-5-5-9-5-12V94c0-4 3-11 3-11-1-1-1-3-6-3s-10 1-10 3l-2 7c-1 5-11 21-16 30l-4-9v-10l3-10c0-1-1-3-6-3l-10 2-2 8a1641 1641 0 0 1-21 46v1l-1 2-2 3v-8l6-25s1-3-3-4c-3-2-5 0-5 0l-1 1s4-17-7-17c-8 0-18 8-23 16l-17 9-8 5-1-1c-14-15-41-26-39-46 0-8 3-28 50-51 40-20 71-14 76-2 8 17-17 48-57 53-16 1-24-5-26-7l-3-2v4c1 3 6 9 15 12 7 2 25 3 47-5 25-10 44-36 38-58-5-23-43-30-78-17-21 7-44 19-60 34C3 59-1 75 1 82c4 23 37 38 50 50l-2 1c-7 3-31 16-38 30-7 15 2 26 7 28 17 4 34-4 43-18 9-13 8-31 4-39v-1l5-3 9-5c-2 4-3 10-3 17-1 9 3 20 7 25 2 2 5 2 6 2 6 0 8-5 11-10l7-15s-4 21 6 21c4 0 8-5 9-7v-1l1-1 10-18 13-29 2 11 5 12-2 3-4 5-12 15c-1 2-1 4 1 5s4 2 6 1l10-2 8-4c5-4 8-9 8-16l-3-11 1-2 14-24 2 10 5 10c-7 6-12 13-14 18-3 8 0 12 4 13 2 1 5 0 7-1l8-5c5-3 10-8 10-15l-2-10c6-2 14-4 25-3 22 3 26 17 25 23 0 6-5 9-7 10l-2 2h3c1 0 11-4 12-15 0-14-13-29-36-28zM49 168c-7 8-18 11-22 9-5-3-3-15 6-23 6-6 13-10 17-13l5-3h1l1-1c3 12 0 23-8 31zm54-36c-3 6-8 22-12 21-2-1-4-13 0-25 2-6 6-13 9-16 4-4 8-6 9-4 2 3-5 20-6 24zm44 21l-3 1 1-1 8-9 4-6v1c0 7-7 12-10 14zm34-8c-1 0-1-2 2-8l8-10v4c0 9-6 13-10 14z"/>
</svg>
