<svg xmlns="http://www.w3.org/2000/svg" style="display:none;">
    <defs>
        <symbol id="js" viewBox="0 0 256 256">
            <path d="M0,0 L256,0 L256,256 L0,256 L0,0 Z" fill="#F7DF1E"></path>
            <path d="M67.311746,213.932292 L86.902654,202.076241 C90.6821079,208.777346 94.1202286,214.447137 102.367086,214.447137 C110.272203,214.447137 115.256076,211.354819 115.256076,199.326883 L115.256076,117.528787 L139.313575,117.528787 L139.313575,199.666997 C139.313575,224.58433 124.707759,235.925943 103.3984,235.925943 C84.1532952,235.925943 72.9819429,225.958603 67.3113397,213.93026" fill="#000000"></path>
            <path d="M152.380952,211.354413 L171.969422,200.0128 C177.125994,208.433981 183.827911,214.619835 195.684368,214.619835 C205.652521,214.619835 212.009041,209.635962 212.009041,202.762159 C212.009041,194.513676 205.479416,191.592025 194.481168,186.78207 L188.468419,184.202565 C171.111213,176.81473 159.597308,167.53534 159.597308,147.944838 C159.597308,129.901308 173.344508,116.153295 194.825752,116.153295 C210.119924,116.153295 221.117765,121.48094 229.021663,135.400432 L210.29059,147.428775 C206.166146,140.040127 201.699556,137.119289 194.826159,137.119289 C187.78047,137.119289 183.312254,141.587098 183.312254,147.428775 C183.312254,154.646349 187.78047,157.568406 198.089956,162.036622 L204.103924,164.614095 C224.553448,173.378641 236.067352,182.313448 236.067352,202.418387 C236.067352,224.071924 219.055137,235.927975 196.200432,235.927975 C173.860978,235.927975 159.425829,225.274311 152.381359,211.354413" fill="#000000"></path>
        </symbol>
        <symbol id="react" viewBox="0 0 256 230" preserveAspectRatio="xMidYMid">
            <path d="M0.754124112,114.750341 C0.754124112,133.964682 19.5166032,151.90205 49.0972,162.012525 C43.1902309,191.75023 48.0385672,215.718618 64.2325395,225.058104 C80.878267,234.657205 105.676296,228.01262 129.212992,207.438816 C152.155865,227.182074 175.343729,234.952033 191.522612,225.586005 C208.152063,215.959037 213.210383,190.365003 207.140052,159.699094 C237.94981,149.512664 255.183937,134.217604 255.183937,114.750341 C255.183937,95.9814665 236.386646,79.743862 207.205024,69.6979922 C213.73997,37.7647117 208.20272,14.3779364 191.338416,4.65275505 C175.079459,-4.72292197 151.622419,3.44893641 128.342126,23.7092591 C104.122937,2.20452764 80.8973474,-4.36113675 64.049392,5.39238954 C47.8062377,14.7947358 43.1711096,39.1986962 49.0971999,69.4869405 C20.5154295,79.4522024 0.754124112,96.0565259 0.754124112,114.750341 Z" fill="#FFFFFF"></path>
            <path d="M201.024553,79.6741178 C198.680534,78.8673056 196.251651,78.1039308 193.750774,77.3819828 C194.161823,75.7044085 194.539085,74.048553 194.87452,72.4208515 C200.380632,45.6934862 196.780544,24.1617345 184.487315,17.0725656 C172.699651,10.2749914 153.421826,17.3625515 133.952151,34.3064132 C132.079912,35.9357235 130.202444,37.6607573 128.325782,39.4686441 C127.075343,38.2725027 125.826916,37.1165813 124.581707,36.0109348 C104.176918,17.8934548 83.7242671,10.2585012 71.4431045,17.3681823 C59.6667022,24.1854643 56.1792302,44.4273621 61.135535,69.7570841 C61.6141524,72.2036638 62.1736119,74.7021273 62.8062718,77.2424195 C59.9116418,78.0641131 57.1171595,78.9401037 54.443337,79.872 C30.5209112,88.2124116 15.2429599,101.283896 15.2429599,114.842444 C15.2429599,128.845826 31.6438523,142.891438 56.5609175,151.408012 C58.527271,152.080088 60.5676292,152.715563 62.6703284,153.318862 C61.9877958,156.066288 61.3941493,158.758611 60.895824,161.384572 C56.1699796,186.27469 59.8605624,206.038372 71.6055931,212.812619 C83.7371375,219.808478 104.097282,212.617552 123.922903,195.287579 C125.489873,193.917687 127.062473,192.464943 128.637888,190.942216 C130.679856,192.908569 132.718604,194.769546 134.746495,196.515092 C153.949914,213.040264 172.916437,219.713157 184.650608,212.920007 C196.770086,205.904037 200.708827,184.673131 195.595261,158.842269 C195.204725,156.86948 194.75024,154.854058 194.239849,152.802841 C195.669668,152.380128 197.073345,151.943742 198.44203,151.490061 C224.345691,142.907526 241.199459,129.032848 241.199459,114.842444 C241.199459,101.234828 225.428813,88.0752616 201.024553,79.6741178 L201.024553,79.6741178 L201.024553,79.6741178 Z" fill="#53C1DE"></path>
            <path d="M195.406228,142.327554 C194.170671,142.73659 192.902938,143.131953 191.611073,143.515249 C188.751435,134.46214 184.891928,124.835494 180.168899,114.889502 C184.675947,105.180405 188.386237,95.6768327 191.165838,86.6824446 C193.477279,87.3513024 195.720748,88.0567605 197.882571,88.8012318 C218.792119,95.9993967 231.546671,106.641998 231.546671,114.842444 C231.546671,123.577414 217.772142,134.916625 195.406228,142.327554 L195.406228,142.327554 L195.406228,142.327554 Z M186.125876,160.71692 C188.387041,172.138985 188.710007,182.46586 187.212216,190.538809 C185.866457,197.79288 183.160056,202.629329 179.813756,204.566322 C172.692813,208.688063 157.464736,203.330363 141.041722,189.197876 C139.159026,187.577816 137.262655,185.847956 135.360251,184.017143 C141.72707,177.053863 148.090269,168.958794 154.300632,159.968427 C165.223968,158.999127 175.544007,157.41446 184.902787,155.251029 C185.363708,157.110397 185.773147,158.93397 186.125876,160.71692 L186.125876,160.71692 L186.125876,160.71692 Z M92.2766379,203.854027 C85.3193904,206.311064 79.7782875,206.381449 76.4287698,204.450086 C69.301392,200.339205 66.3383881,184.470825 70.3800911,163.184817 C70.8430228,160.747085 71.3940362,158.242992 72.0291092,155.683394 C81.2853291,157.730187 91.5297533,159.203041 102.479233,160.090696 C108.731425,168.888007 115.278429,176.974228 121.87611,184.054548 C120.434627,185.446158 118.998774,186.771004 117.570966,188.019431 C108.804223,195.682539 100.018979,201.119472 92.2766379,203.854027 L92.2766379,203.854027 L92.2766379,203.854027 Z M59.6827903,142.274061 C48.6649364,138.508267 39.5659765,133.613901 33.3290683,128.273094 C27.7248202,123.473647 24.8953464,118.708789 24.8953464,114.842444 C24.8953464,106.614649 37.1620299,96.1200565 57.6207133,88.9870479 C60.1030888,88.1215145 62.7016999,87.3058539 65.3984478,86.5396638 C68.2259104,95.7371626 71.9349945,105.353351 76.4110731,115.077329 C71.8770778,124.945696 68.1153056,134.715124 65.2600911,144.020411 C63.3375774,143.467789 61.4749914,142.886209 59.6827903,142.274061 L59.6827903,142.274061 L59.6827903,142.274061 Z M70.6085405,67.9033464 C66.3621178,46.2014643 69.182341,29.8303347 76.2791516,25.7222687 C83.8384918,21.3459356 100.554306,27.585659 118.172255,43.2292097 C119.298413,44.2290778 120.428996,45.2756009 121.562797,46.3583221 C114.997694,53.4076732 108.510618,61.4331626 102.31393,70.1785891 C91.6870133,71.1635758 81.5145828,72.7458288 72.1618351,74.8646158 C71.5738193,72.4992804 71.0529709,70.1753716 70.6085405,67.9033464 L70.6085405,67.9033464 L70.6085405,67.9033464 Z M168.075965,91.970564 C165.840139,88.1086441 163.544785,84.3380235 161.204789,80.6703661 C168.414216,81.5817502 175.321589,82.7915664 181.808264,84.2720629 C179.860813,90.5133951 177.43354,97.0390825 174.576314,103.728867 C172.526706,99.8375868 170.35885,95.9141304 168.075965,91.970564 L168.075965,91.970564 L168.075965,91.970564 Z M128.328999,53.2568484 C132.781348,58.0804274 137.240132,63.465879 141.625716,69.3090337 C137.206347,69.1002922 132.732279,68.9916983 128.22121,68.9916983 C123.752773,68.9916983 119.311686,69.097879 114.919667,69.3030007 C119.309675,63.5141429 123.80707,58.1359308 128.328999,53.2568484 L128.328999,53.2568484 L128.328999,53.2568484 Z M88.3274407,92.0373291 C86.0940267,95.9101084 83.9663912,99.8122483 81.9489584,103.721628 C79.1379858,97.0551705 76.7332349,90.4997203 74.7688924,84.1699041 C81.2157486,82.7272144 88.0905452,81.5475633 95.254121,80.6534737 C92.8811438,84.3549159 90.5668876,88.1532883 88.3274407,92.0365247 L88.3274407,92.0373291 L88.3274407,92.0373291 Z M95.4604493,149.719981 C88.0591736,148.894265 81.0810118,147.775347 74.6357643,146.372474 C76.6314784,139.92964 79.0893197,133.234225 81.9598177,126.424182 C83.9824792,130.330746 86.1185609,134.234495 88.3656497,138.115721 L88.3660518,138.115721 C90.6549694,142.069744 93.0263378,145.942925 95.4604493,149.719981 L95.4604493,149.719981 L95.4604493,149.719981 Z M128.59606,177.108562 C124.02104,172.172367 119.457684,166.712107 115.000911,160.838787 C119.327371,161.008515 123.738293,161.095391 128.22121,161.095391 C132.826797,161.095391 137.379695,160.991623 141.861003,160.792132 C137.460939,166.771231 133.018244,172.239937 128.59606,177.108562 L128.59606,177.108562 L128.59606,177.108562 Z M174.668418,126.077084 C177.688534,132.960729 180.234457,139.621153 182.255912,145.954187 C175.704484,147.44876 168.631001,148.652544 161.178244,149.547036 C163.523872,145.829907 165.839334,141.994532 168.114576,138.049357 C170.416365,134.05793 172.601917,130.060469 174.668418,126.077084 L174.668418,126.077084 L174.668418,126.077084 Z M159.75325,133.226985 C156.221134,139.351277 152.594903,145.197649 148.913571,150.71623 C142.208502,151.195651 135.28142,151.442602 128.22121,151.442602 C121.189556,151.442602 114.34975,151.224207 107.763331,150.796669 C103.933587,145.205694 100.228525,139.342027 96.7189317,133.279673 L96.7197361,133.279673 C93.2193935,127.23381 89.9977754,121.136867 87.0786112,115.074112 C89.9969709,108.997279 93.2101429,102.893499 96.6903755,96.8584949 L96.6895711,96.8597015 C100.179054,90.8086096 103.851538,84.9734988 107.645888,79.4175145 C114.365838,78.9095366 121.256723,78.6444871 128.220808,78.6444871 L128.22121,78.6444871 C135.216666,78.6444871 142.116399,78.9115475 148.834337,79.4239498 C152.570771,84.9393119 156.218319,90.7555192 159.721477,96.8074156 C163.264453,102.927284 166.519051,108.990441 169.462347,114.936962 C166.5279,120.98564 163.280541,127.109933 159.75325,133.226985 L159.75325,133.226985 L159.75325,133.226985 Z M179.665747,25.4350982 C187.232327,29.7985609 190.174818,47.3963991 185.42082,70.472597 C185.117561,71.9450495 184.776095,73.4448515 184.405266,74.9647635 C175.030799,72.8017345 164.851129,71.192132 154.193245,70.1922639 C147.98449,61.3507117 141.550504,53.3127541 135.092386,46.3538978 C136.828682,44.6835633 138.562564,43.0908531 140.289206,41.5878335 C156.970834,27.0704415 172.562099,21.338696 179.665747,25.4350982 L179.665747,25.4350982 L179.665747,25.4350982 Z" fill="#FFFFFF"></path>
            <path d="M128.22121,94.6653008 C139.36455,94.6653008 148.398353,103.698702 148.398353,114.842444 C148.398353,125.985784 139.36455,135.019589 128.22121,135.019589 C117.07787,135.019589 108.044066,125.985784 108.044066,114.842444 C108.044066,103.698702 117.07787,94.6653008 128.22121,94.6653008" fill="#53C1DE"></path>
        </symbol>
        <symbol id="redux" viewBox="0 0 256 244">
            <path d="M177.380953,169.732752 C186.828305,168.755405 193.995262,160.610839 193.669491,150.83736 C193.34372,141.063881 185.199451,133.245097 175.426328,133.245097 L174.774787,133.245097 C164.675893,133.57088 156.857395,142.041229 157.183166,152.14049 C157.508937,157.02723 159.463561,161.262404 162.395498,164.194448 C151.319292,186.021884 134.379213,201.985233 108.969093,215.342321 C91.7032429,224.464235 73.7858511,227.722061 55.8684592,225.441583 C41.208775,223.486887 29.8067984,216.971234 22.6398417,206.220408 C12.2151773,190.257058 11.237865,172.990579 20.0336756,155.724099 C26.22332,143.344359 35.9964428,134.222445 42.1860873,129.661488 C40.8830043,125.426314 38.9283797,118.259096 37.9510674,113.046574 C-9.28569288,147.253751 -4.39913147,193.514885 9.934782,215.342321 C20.6852171,231.631453 42.5118581,241.730715 66.6188943,241.730715 C73.1343096,241.730715 79.6497248,241.079149 86.16514,239.450236 C127.863797,231.30567 159.463561,206.54619 177.380953,169.732752 Z M234.716607,129.335706 C209.958029,100.341051 173.471704,84.3777023 131.773046,84.3777023 L126.560714,84.3777023 C123.628777,78.5136149 117.439133,74.6042233 110.597947,74.6042233 L109.946406,74.6042233 C99.8475119,74.9300059 92.0290137,83.4003544 92.3547844,93.499616 C92.6805552,103.273095 100.824824,111.091878 110.597947,111.091878 L111.249489,111.091878 C118.416445,110.766096 124.60609,106.205139 127.212256,100.015269 L133.07613,100.015269 C157.834707,100.015269 181.290202,107.182487 202.465302,121.19114 C218.75384,131.941967 230.481587,145.95062 236.997002,162.891317 C242.535105,176.574188 242.209334,189.931276 236.345461,201.333668 C227.223879,218.600148 211.912654,228.047844 191.714866,228.047844 C178.684036,228.047844 166.304747,224.138452 159.789332,221.206409 C156.205854,224.464235 149.690438,229.676757 145.129648,232.934584 C159.13779,239.450236 173.471704,243.033845 187.154076,243.033845 C218.428069,243.033845 241.557793,225.767366 250.353603,208.500886 C259.800955,189.605493 259.149414,157.02723 234.716607,129.335706 Z M69.2250604,175.271057 C69.5508312,185.044536 77.6951002,192.86332 87.468223,192.86332 L88.1197645,192.86332 C98.2186581,192.537537 106.037156,184.067188 105.711386,173.967927 C105.385615,164.194448 97.2413458,156.375664 87.468223,156.375664 L86.8166815,156.375664 C86.16514,156.375664 85.1878277,156.375664 84.5362862,156.701447 C71.179685,134.548228 65.6415821,110.440313 67.5962066,84.3777023 C68.8992897,64.8307442 75.4147049,47.8900472 86.8166815,33.881394 C96.2640336,21.8274365 114.507196,15.9633491 126.886485,15.6375664 C161.418186,14.9860012 176.07787,57.9893089 177.055182,75.2557885 C181.290202,76.2331364 188.457159,78.5136149 193.34372,80.142528 C189.434471,27.3657413 156.857395,0 125.583402,0 C96.2640336,0 69.2250604,21.1758712 58.4746253,52.4510041 C43.4891703,94.1511813 53.2622932,134.222445 71.5054558,165.823361 C69.876602,168.103839 68.8992897,171.687448 69.2250604,175.271057 Z" fill="#764ABC"></path>
        </symbol>
        <symbol id="webpack" viewBox="0 0 256 290" preserveAspectRatio="xMidYMid">
            <polygon fill="#FFFFFF" points="128 0.0483018868 256 72.4528302 256 217.310189 128 289.714717 0 217.310189 0 72.4528302"></polygon>
            <path d="M233.153208,212.286792 L132.250566,269.427925 L132.250566,224.990189 L195.139623,190.357736 L233.153208,212.286792 Z M240.060377,206.055849 L240.060377,86.6535849 L203.157736,107.954717 L203.157736,184.754717 L240.060377,206.055849 Z M22.4603774,212.286792 L123.363019,269.379623 L123.363019,224.941887 L60.4739623,190.357736 L22.4603774,212.286792 L22.4603774,212.286792 Z M15.5532075,206.055849 L15.5532075,86.6535849 L52.4558491,107.954717 L52.4558491,184.754717 L15.5532075,206.055849 L15.5532075,206.055849 Z M19.8520755,78.925283 L123.363019,20.3833962 L123.363019,63.3720755 L57.0445283,99.84 L56.5132075,100.129811 L19.8520755,78.925283 L19.8520755,78.925283 Z M235.713208,78.925283 L132.250566,20.3833962 L132.250566,63.3720755 L198.520755,99.8883019 L199.052075,100.178113 L235.713208,78.925283 L235.713208,78.925283 Z" fill="#8ED6FB"></path>
            <path d="M123.363019,214.846792 L61.3433962,180.697358 L61.3433962,113.123019 L123.363019,148.914717 L123.363019,214.846792 L123.363019,214.846792 Z M132.250566,214.846792 L194.270189,180.74566 L194.270189,113.123019 L132.250566,148.914717 L132.250566,214.846792 Z M65.4973585,105.298113 L127.806792,71.0520755 L190.067925,105.298113 L127.806792,141.234717 L65.4973585,105.298113 L65.4973585,105.298113 Z" fill="#1C78C0"></path>
        </symbol>
       <symbol id="html5" xmlns="http://www.w3.org/2000/svg" xmlns:xlink="http://www.w3.org/1999/xlink" viewBox="0 0 512 512" enable-background="new 0 0 512 512" xml:space="preserve">
            <g>
                <g>
                    <g>
                        <path d="M108.382,0h23.077v22.8h21.11V0h23.078v69.044H152.57v-23.12h-21.11v23.12h-23.077L108.382,0L108.382,0z"/>
                        <path d="M205.994,22.896h-20.316V0h63.72v22.896h-20.325v46.148h-23.078L205.994,22.896L205.994,22.896z"/>
                        <path d="M259.511,0h24.063l14.802,24.26L313.163,0h24.072v69.044h-22.982V34.822l-15.877,24.549h-0.397l-15.888-24.549v34.222
                            h-22.58V0z"/>
                        <path d="M348.72,0h23.084v46.222h32.453v22.822H348.72V0z"/>
                    </g>
                </g>
            </g>
            <g id="Guides_to_delete">
                <g>
                    <polygon fill="#E34E26" points="107.125,470.727 74.012,99.297 437.703,99.297 404.549,470.755 255.769,512 		"/>
                    <polygon fill="#EF662A" points="255.857,129.657 255.857,480.449 376.164,447.101 404.51,129.657 		"/>
                    <polygon fill="#FFFFFF" points="141.761,175.217 154.041,312.978 311.936,312.978 306.637,372.066 255.799,385.811 
                        205.057,372.085 201.664,334.146 155.937,334.146 162.476,407.282 255.787,433.199 349.219,407.282 361.744,267.429 
                        195.706,267.429 191.538,220.777 365.732,220.777 365.873,220.777 369.953,175.217 		"/>
                    <g>
                        <polygon fill="#EBEBEB" points="255.857,175.217 141.761,175.217 154.041,312.978 255.857,312.978 255.857,267.429 
                            195.706,267.429 191.538,220.777 255.857,220.777 			"/>
                        <polygon fill="#EBEBEB" points="255.857,385.791 255.799,385.811 205.057,372.085 201.664,334.146 155.937,334.146 
                            162.476,407.282 255.787,433.199 255.857,433.179 			"/>
                    </g>
                </g>
            </g>
        </symbol>
        <symbol id="sass" viewBox="0 0 256 192" preserveAspectRatio="xMidYMid">
            <g fill="#CD6799">
                <path d="M220.281239,110.513661 C211.374863,110.560291 203.634244,112.705282 197.152641,115.876138 C194.774499,111.166485 192.396357,106.969763 191.976685,103.892168 C191.510383,100.301639 190.95082,98.1100182 191.510383,93.8200364 C192.069945,89.5300546 194.587978,83.4214936 194.541348,82.9551913 C194.494718,82.4888889 193.981785,80.2972678 188.852459,80.2506375 C183.723133,80.2040073 179.29326,81.2298725 178.780328,82.5821494 C178.267395,83.9344262 177.28816,87.0120219 176.635337,90.182878 C175.749362,94.8459016 166.376685,111.492896 161.014208,120.21275 C159.288889,116.808743 157.796721,113.824408 157.47031,111.446266 C157.004007,107.855738 156.444444,105.664117 157.004007,101.374135 C157.56357,97.084153 160.081603,90.975592 160.034973,90.5092896 C159.988342,90.0429872 159.47541,87.8513661 154.346084,87.8047359 C149.216758,87.7581056 144.786885,88.7839709 144.273953,90.1362477 C143.76102,91.4885246 143.201457,94.6593807 142.128962,97.7369763 C141.056466,100.814572 128.606193,128.606193 125.342077,135.78725 C123.663388,139.471038 122.217851,142.408743 121.191985,144.413843 L121.191985,144.413843 C121.191985,144.413843 121.145355,144.553734 121.005464,144.786885 C120.11949,146.512204 119.606557,147.444809 119.606557,147.444809 C119.606557,147.444809 119.606557,147.444809 119.606557,147.491439 C118.907104,148.750455 118.16102,149.916211 117.787978,149.916211 C117.508197,149.916211 116.995264,146.558834 117.881239,141.989071 C119.746448,132.336612 124.176321,117.321676 124.12969,116.808743 C124.12969,116.528962 124.969035,113.917668 121.238616,112.565392 C117.601457,111.213115 116.295811,113.451366 115.969399,113.451366 C115.642987,113.451366 115.409836,114.24408 115.409836,114.24408 C115.409836,114.24408 119.466667,97.3639344 107.669217,97.3639344 C100.301639,97.3639344 90.1362477,105.430965 85.1001821,112.705282 C81.929326,114.430601 75.1679417,118.11439 67.940255,122.07796 C65.189071,123.616758 62.3446266,125.155556 59.6867031,126.601093 C59.5001821,126.414572 59.3136612,126.181421 59.1271403,125.9949 C44.8582878,110.746812 18.4655738,99.9752277 19.5846995,79.5045537 C20.0043716,72.0437158 22.5690346,52.4590164 70.2717668,28.6775956 C109.534426,9.32604736 140.776685,14.6885246 146.185792,26.579235 C153.926412,43.5526412 129.445537,75.0746812 88.8772313,79.6444444 C73.3959927,81.3697632 65.2823315,75.4010929 63.2306011,73.1628415 C61.0856102,70.8313297 60.7591985,70.691439 59.9664845,71.1577413 C58.6608379,71.8571949 59.5001821,73.9555556 59.9664845,75.1679417 C61.1788707,78.3387978 66.168306,83.9344262 74.6083789,86.6856102 C82.0692168,89.1103825 100.208379,90.4626594 122.17122,81.9759563 C146.745355,72.463388 165.957013,46.0240437 160.314754,23.8746812 C154.672495,1.3989071 117.368306,-6.01530055 82.0692168,6.52823315 C61.0856102,13.989071 38.3300546,25.7398907 21.9628415,41.0346084 C2.51803279,59.2204007 -0.559562842,75.028051 0.699453552,81.6495446 C5.22258652,105.151184 37.6306011,120.445902 50.5938069,131.777049 C49.9409836,132.150091 49.3347905,132.476503 48.8218579,132.756284 C42.340255,135.97377 17.6262295,148.890346 11.4710383,162.553005 C4.47650273,178.034244 12.5901639,189.13224 17.9526412,190.624408 C34.5996357,195.240801 51.7129326,186.940619 60.8990893,173.23133 C70.0852459,159.52204 68.9661202,141.70929 64.7227687,133.548998 C64.6761384,133.455738 64.6295082,133.362477 64.5362477,133.269217 C66.2149362,132.289982 67.940255,131.264117 69.6189435,130.284882 C72.9296903,128.326412 76.1938069,126.507832 78.9916211,125.015665 C77.4061931,129.352277 76.2404372,134.528233 75.6808743,141.989071 C74.9814208,150.755556 78.571949,162.133333 83.2816029,166.609836 C85.3799636,168.568306 87.8513661,168.614936 89.4367942,168.614936 C94.9391621,168.614936 97.4105647,164.045173 100.161749,158.636066 C103.519126,152.014572 106.550091,144.320583 106.550091,144.320583 C106.550091,144.320583 102.773042,165.117668 113.031694,165.117668 C116.762113,165.117668 120.539162,160.268124 122.217851,157.796721 L122.217851,157.843352 C122.217851,157.843352 122.311111,157.703461 122.497632,157.377049 C122.870674,156.770856 123.103825,156.397814 123.103825,156.397814 L123.103825,156.304554 C124.595993,153.69326 127.95337,147.77122 132.942805,137.93224 C139.377778,125.248816 145.579599,109.394536 145.579599,109.394536 C145.579599,109.394536 146.139162,113.264845 148.051002,119.699818 C149.170128,123.476867 151.501639,127.626958 153.366849,131.637158 C151.874681,133.735519 150.942077,134.901275 150.942077,134.901275 C150.942077,134.901275 150.942077,134.901275 150.988707,134.947905 C149.776321,136.533333 148.470674,138.258652 147.025137,139.937341 C141.942441,145.999271 135.88051,152.947177 135.041166,154.952277 C134.061931,157.330419 134.295082,159.055738 136.160291,160.454645 C137.512568,161.48051 139.937341,161.620401 142.408743,161.48051 C146.978506,161.154098 150.195993,160.034973 151.781421,159.335519 C154.252823,158.449545 157.143898,157.097268 159.848452,155.092168 C164.837887,151.408379 167.868852,146.139162 167.589071,139.191257 C167.44918,135.367577 166.190164,131.543898 164.651366,127.95337 C165.117668,127.300546 165.537341,126.647723 166.003643,125.9949 C173.884153,114.477231 179.992714,101.840437 179.992714,101.840437 C179.992714,101.840437 180.552277,105.710747 182.464117,112.145719 C183.396721,115.409836 185.308561,118.953734 186.98725,122.404372 C179.573042,128.419672 175.003279,135.414208 173.37122,139.983971 C170.433515,148.470674 172.718397,152.294353 177.055009,153.180328 C179.013479,153.6 181.811293,152.667395 183.863024,151.781421 C186.474317,150.942077 189.551913,149.496539 192.489617,147.351548 C197.479053,143.66776 202.281967,138.538434 202.002186,131.590528 C201.862295,128.419672 201.022951,125.295446 199.857195,122.264481 C206.152277,119.653188 214.265938,118.20765 224.617851,119.420036 C246.813843,122.03133 251.197086,135.88051 250.357741,141.70929 C249.518397,147.538069 244.855373,150.708925 243.316576,151.68816 C241.777778,152.667395 241.264845,152.993807 241.404736,153.69326 C241.591257,154.719126 242.337341,154.672495 243.642987,154.485974 C245.461566,154.159563 255.300546,149.776321 255.720219,139.051366 C256.419672,125.342077 243.363206,110.37377 220.281239,110.513661 L220.281239,110.513661 Z M49.0550091,168.241894 C41.6874317,176.262295 31.4287796,179.29326 26.9989071,176.728597 C22.242623,173.977413 24.1078324,162.133333 33.1540984,153.64663 C38.6564663,148.470674 45.7442623,143.66776 50.4539162,140.730055 C51.5264117,140.077231 53.1118397,139.144627 55.0236794,137.978871 C55.3500911,137.79235 55.536612,137.699089 55.536612,137.699089 L55.536612,137.699089 C55.9096539,137.465938 56.2826958,137.232787 56.6557377,136.999636 C59.9664845,149.123497 56.7956284,159.801821 49.0550091,168.241894 L49.0550091,168.241894 Z M102.679781,131.777049 C100.115118,138.025501 94.7526412,154.019672 91.4885246,153.133698 C88.6907104,152.387614 86.9653916,140.263752 90.9289617,128.279781 C92.9340619,122.264481 97.1774135,115.083424 99.648816,112.28561 C103.659016,107.809107 108.088889,106.31694 109.161384,108.135519 C110.513661,110.513661 104.265209,127.860109 102.679781,131.777049 L102.679781,131.777049 Z M146.931876,152.947177 C145.859381,153.50674 144.833515,153.879781 144.367213,153.6 C144.040801,153.413479 144.833515,152.667395 144.833515,152.667395 C144.833515,152.667395 150.382514,146.698725 152.574135,143.994171 C153.833151,142.408743 155.325319,140.543534 156.910747,138.445173 L156.910747,139.051366 C156.910747,146.185792 150.009472,150.988707 146.931876,152.947177 L146.931876,152.947177 Z M181.065209,145.159927 C180.272495,144.600364 180.412386,142.735155 183.07031,136.906375 C184.096175,134.621494 186.520947,130.797814 190.671038,127.114026 C191.137341,128.606193 191.463752,130.05173 191.417122,131.404007 C191.370492,140.403643 184.935519,143.76102 181.065209,145.159927 L181.065209,145.159927 Z"></path>
            </g>
        </symbol>
        <symbol id="material-ui" viewBox="0 0 256 208" preserveAspectRatio="xMidYMid">
            <path d="M15.6235294,35.0117647 L15.6235294,122.541176 L30.6823529,114.070588 L30.6823529,43.4823529 L15.6235294,35.0117647 Z" fill="#949494"></path>
            <path d="M0.564705882,114.070588 L0.564705882,8.65882353 L89.9764706,59.4823529 L89.9764706,77.3647059 L15.6235294,35.0117647 L15.6235294,122.541176 L0.564705882,114.070588 Z" fill="#EFEFEF"></path>
            <path d="M181.270588,8.65882353 L181.270588,114.070588 L121.035294,147.952941 L105.976471,138.541176 L166.211765,104.658824 L166.211765,34.0705882 L89.9764706,77.3647059 L89.9764706,59.4823529 L181.270588,8.65882353 Z" fill="#949494"></path>
            <path d="M166.211765,0.188235294 L90.9176471,42.5411765 L15.6235294,0.188235294 L0.564705882,8.65882353 L89.9764706,59.4823529 L181.270588,8.65882353 L166.211765,0.188235294 Z" fill="#D6D6D6"></path>
            <path d="M151.152941,42.5411765 L151.152941,96.1882353 L166.211765,104.658824 L166.211765,34.0705882 L151.152941,42.5411765 Z" fill="#EFEFEF"></path>
            <path d="M75.8588235,138.541176 L151.152941,96.1882353 L166.211765,104.658824 L105.976471,138.541176 L165.270588,172.423529 L225.505882,138.541176 L240.564706,147.011765 L165.270588,189.364706 L75.8588235,138.541176 Z" fill="#D6D6D6"></path>
            <path d="M75.8588235,138.541176 L75.8588235,156.423529 L165.270588,207.247059 L165.270588,189.364706 L75.8588235,138.541176 Z" fill="#EFEFEF"></path>
            <path d="M240.564706,147.011765 L240.564706,94.3058824 L225.505882,85.8352941 L225.505882,138.541176 L240.564706,147.011765 Z" fill="#EFEFEF"></path>
            <path d="M165.270588,189.364706 L240.564706,147.011765 L240.564706,94.3058824 L255.623529,85.8352941 L255.623529,156.423529 L165.270588,207.247059 L165.270588,189.364706 Z" fill="#949494"></path>
            <path d="M255.623529,85.8352941 L240.564706,94.3058824 L225.505882,85.8352941 L240.564706,77.3647059 L255.623529,85.8352941 Z" fill="#D6D6D6"></path>
            <path d="M240.564706,77.3647059 L240.564706,59.4823529 L255.623529,51.0117647 L255.623529,68.8941176 L240.564706,77.3647059 Z" fill="#949494"></path>
            <path d="M240.564706,59.4823529 L240.564706,77.3647059 L225.505882,68.8941176 L225.505882,51.0117647 L240.564706,59.4823529 Z" fill="#EFEFEF"></path>
            <path d="M255.623529,51.0117647 L240.564706,59.4823529 L225.505882,51.0117647 L240.564706,42.5411765 L255.623529,51.0117647 Z" fill="#D6D6D6"></path>
        </symbol>
        <symbol id="jquery" viewBox="0 0 512 116" stroke="none" stroke-width="1" fill="none" fill-rule="evenodd">
            <path d="M489.718192,8.64613026 L511.13882,8.76383142 C511.13882,8.76383142 471.313656,62.7278468 468.06216,67.1259464 C467.005794,68.5501302 465.401134,70.0861302 464.588016,71.9899464 C462.531188,76.7764598 460.419432,87.2754022 460.419432,87.2754022 L440.82023,87.3725058 C440.82023,87.3725058 443.86967,76.4292414 443.744122,70.600092 C443.633288,65.5075556 441.034054,60.421885 439.57554,55.314636 C438.102314,50.1455938 436.101394,40.02918 436.101394,40.02918 L456.25085,40.02918 L459.029578,51.1460536 L489.718192,8.64613026" fill="#1A1918"></path>
            <path d="M449.157394,20.0268506 C453.110192,22.4102988 455.535816,35.5555556 455.535816,35.5555556 C455.535816,35.5555556 434.8518,35.8605978 423.595648,35.8605978 L413.868628,35.8605978 L402.057318,87.2754022 L383.993134,87.2754022 C383.993134,87.2754022 395.234574,31.400705 397.888736,21.2705594 C398.749916,17.9916015 403.78066,18.5536245 412.277702,18.5536245 L425.846682,18.5536245 C434.608552,18.5536245 444.849532,17.4354636 449.157394,20.0268506" fill="#1A1918"></path>
            <path d="M365.059924,45.0667892 C365.059924,45.0667892 365.622928,41.7662528 363.149242,37.9448888 C361.037486,34.6865288 359.08561,33.929318 353.527172,33.7557088 C337.831724,33.2623448 338.136766,44.89318 338.136766,44.89318 L365.059924,45.0667892 L365.059924,45.0667892 Z M382.082452,31.7479234 C384.382528,40.0438928 379.99816,59.5391264 379.99816,59.5391264 C379.99816,59.5391264 357.104306,59.1565978 344.56423,59.5391264 C340.66538,59.6578084 335.997548,59.1154022 334.83721,60.9289808 C333.204108,63.4713256 335.433564,67.383908 337.323648,69.0366284 C339.499158,70.9404444 343.736398,71.1562298 345.258666,71.3504368 C355.436874,72.6431878 376.7398,71.6839234 376.7398,71.6839234 L373.04987,88.0247662 C373.04987,88.0247662 342.94584,89.5333026 327.88892,85.940475 C324.915984,85.2323066 322.12941,83.8012568 320.246192,81.7718928 C319.73223,81.2167356 319.286928,80.459525 318.80043,79.8062836 C318.412016,79.284475 317.280122,77.5689808 316.772046,76.213456 C313.33321,67.0494406 317.175172,49.4923524 320.940628,40.0850882 C321.378084,38.9943908 321.927356,37.6123832 322.505072,36.4373334 C323.226974,34.971954 323.838038,33.3182528 324.414774,32.4423602 C324.803188,31.838161 325.2838,31.4487662 325.686928,30.8788966 C326.151846,30.2050574 326.693272,29.551816 327.194482,28.9691954 C328.583356,27.3566896 330.160552,26.2169502 332.057502,24.800613 C338.330974,20.1033564 349.68423,16.4556015 363.32285,17.8523218 C368.457564,18.3800153 376.212108,20.2141916 379.99816,25.4950498 C381.012352,26.905502 381.512582,29.7048276 382.082452,31.7479234 L382.082452,31.7479234 L382.082452,31.7479234 Z" fill="#1A1918"></path>
            <path d="M299.22869,18.4908506 L316.744582,18.3868812 C316.744582,18.3868812 306.983234,64.6944368 302.008398,87.2754022 L281.858942,87.2754022 C267.776,87.2754022 255.234942,89.019341 249.899158,78.9372568 C244.72325,69.1484444 249.662774,53.0498698 251.983448,42.1134712 C253.623418,34.3736398 257.076966,18.5536245 257.076966,18.5536245 L275.224522,18.3868812 C275.224522,18.3868812 270.096674,43.0168276 267.96334,55.314636 C267.199264,59.7196016 265.62305,63.8675862 267.268904,67.1259464 C268.832368,70.22541 271.020628,70.4470804 277.69036,70.600092 C279.803096,70.649134 286.722942,70.600092 286.722942,70.600092 L299.22869,18.4908506" fill="#1A1918"></path>
            <path d="M217.243954,51.8404904 C219.07813,45.3237702 221.752888,38.2577778 221.412536,32.3864522 C221.04472,26.106115 215.778574,20.3878008 212.380934,19.1862682 C202.14682,15.5728429 192.565946,20.624184 188.758314,24.7437242 C183.83154,30.0804904 182.164107,36.3127662 180.420169,44.89318 C179.121533,51.2637548 178.058299,57.9893946 180.420169,62.957364 C184.602483,71.7398314 197.64377,69.8222836 211.685518,69.9056552 C213.769808,64.3197548 215.49315,58.0453026 217.243954,51.8404904 L217.243954,51.8404904 L217.243954,51.8404904 Z M241.561992,26.1335786 C243.562912,40.6824214 235.885854,56.7398008 230.59813,70.7040614 C235.989824,71.1905594 240.714544,70.6285364 241.054896,71.030682 C241.40898,71.5524904 237.441472,87.6991264 236.058482,87.7403218 C231.779066,87.852138 217.59902,87.969839 211.685518,87.969839 C192.391356,87.969839 174.340904,89.2272796 165.135693,79.6326744 C161.397701,75.7348046 158.81318,69.0503602 158.187402,64.3472184 C157.144766,56.4955708 158.451249,47.8523832 160.271693,40.7245978 C161.918529,34.2902682 164.030284,28.2178698 167.219985,22.659433 C175.327632,8.50685058 189.432153,-1.99797701 213.075372,0.426666666 C217.660812,0.89943295 224.247172,2.9072184 228.360828,5.28968582 C228.645272,5.45740996 229.639846,6.2489502 229.868384,6.38822988 C235.42682,9.92514942 240.491892,18.3662835 241.561992,26.1335786 L241.561992,26.1335786 L241.561992,26.1335786 Z" fill="#1A1918"></path>
            <path d="M156.193349,18.5742222 C155.026146,23.88941 153.858943,29.9137472 152.628966,35.166161 L133.174927,35.166161 C134.682483,29.3438774 135.835954,23.5559234 137.34351,18.4908506 C143.56892,18.4908506 149.356874,18.5742222 156.193349,18.5742222" fill="#1A1918"></path>
            <path d="M132.48049,40.02918 L151.239111,40.02918 C148.787004,53.6060076 143.930851,75.5052874 140.123218,90.748567 C137.73977,100.288245 136.148843,107.250268 129.700782,112.286897 C129.124046,112.739065 128.79154,112.524261 128.311908,112.982314 C127.123126,114.115188 121.627464,115.428536 118.584889,115.761042 C113.637517,116.296582 108.044751,115.830682 101.965487,115.706115 C103.556414,109.890697 105.356261,102.908077 106.773579,97.6968582 C121.593134,99.489839 121.968797,85.4824214 124.837762,71.9899464 C126.49833,64.1942068 131.529073,43.1561072 132.48049,40.02918" fill="#1A1918"></path>
            <g transform="translate(0.000000, 8.827586)" fill="#21609B">
                <path d="M88.7084138,66.6365058 L88.3062682,67.678161 C81.4550804,81.0176246 69.3171494,89.2027586 52.0033104,89.5637088 C43.9093946,89.7304522 36.1970268,87.6540076 31.1594176,85.3951264 C20.286774,80.5105288 11.1423755,71.4514636 6.14792338,61.7725058 C-1.01615326,47.897502 -2.30792338,28.596475 12.5881379,14.180046 C12.8176552,14.180046 10.7814253,17.3059923 11.0109425,17.3059923 L10.6009502,18.6399387 C-0.133394636,52.2465594 32.9376858,81.046069 65.0857932,77.7523984 C72.8118928,76.9608582 82.6644598,72.729502 88.7084138,66.6365058"></path>
                <path d="M69.2543754,52.7399234 C77.3424062,52.7958314 85.7904062,49.0156628 90.792705,43.7083218 C86.416184,54.8183296 73.7436934,61.9598468 56.7486284,59.6882146 C42.5195402,57.7843984 28.9642912,43.4650728 27.5675708,29.1173026 C26.5465134,18.675249 30.1864214,12.4429732 36.183295,4.88361686 C34.0990038,8.83739464 33.3202146,11.8868352 33.1260076,13.8318467 C30.8475096,36.4196782 51.1695938,52.6222222 69.2543754,52.7399234"></path>
                <path d="M89.980567,24.6848736 C88.7231264,27.5685518 81.483525,33.0151724 78.2869578,33.6958774 C65.6281992,36.3922146 57.5205518,30.389456 53.2744828,23.558866 C52.64282,22.5378084 51.4756168,19.7522146 51.2666974,19.0430651 C49.619862,13.443433 50.3770728,4.9738544 55.290115,0.58948659 C53.810023,4.75806896 53.5942376,9.60049042 54.3730268,12.7480153 C54.8448122,14.6518314 56.282728,17.9739464 57.7216246,20.0641226 C60.340475,23.8717548 62.0010422,24.7966896 65.3643524,26.8182068 C66.878774,27.7284292 68.5040306,28.4581762 69.2063142,28.659249 C72.3950344,29.5969348 79.1275402,32.0706206 89.980567,24.6848736"></path>
            </g>
        </symbol>
        <symbol id="git" viewBox="0 0 256 256" preserveAspectRatio="xMidYMid">
            <path d="M251.172245,116.593517 L139.398753,4.82845302 C132.966433,-1.60948434 122.525852,-1.60948434 116.085106,4.82845302 L92.8753863,28.0381721 L122.317995,57.4807809 C129.16041,55.1690784 137.005593,56.7195763 142.460425,62.1744081 C147.940536,67.6629464 149.479799,75.5755422 147.111919,82.4404282 L175.487156,110.815665 C182.352042,108.450594 190.273064,109.98143 195.755985,115.472777 C203.418591,123.132574 203.418591,135.547794 195.755985,143.213209 C188.09057,150.878624 175.67535,150.878624 168.007126,143.213209 C162.243319,137.443783 160.81922,128.977839 163.737639,121.877008 L137.275245,95.4146135 L137.272436,165.052198 C139.140337,165.979126 140.904309,167.212221 142.460425,168.762719 C150.123031,176.422516 150.123031,188.837736 142.460425,196.508768 C134.79501,204.171375 122.374173,204.171375 114.719993,196.508768 C107.057387,188.837736 107.057387,176.422516 114.719993,168.762719 C116.613174,166.872347 118.804095,165.442631 121.141077,164.481996 L121.141077,94.1955625 C118.804095,93.2405457 116.615983,91.8192558 114.719993,89.9148396 C108.914052,84.1173254 107.518042,75.5980132 110.492639,68.4690928 L81.4713611,39.4421974 L4.83125614,116.076685 C-1.60949009,122.52024 -1.60949009,132.960821 4.83125614,139.398759 L116.604747,251.166631 C123.039876,257.604569 133.477648,257.604569 139.921203,251.166631 L251.172245,139.9184 C257.61018,133.477654 257.61018,123.031455 251.172245,116.593517" fill="#DE4C36"></path>
        </symbol>
        <symbol id="sketch" viewBox="0 0 256 232" preserveAspectRatio="xMidYMid">
            <polygon fill="#FDB300" points="127.9998 0.0002 55.8548 7.6282 -0.0002 82.6072 127.9998 231.6622 255.9998 82.6072 200.1458 7.6282"></polygon>
            <polygon fill="#EB6C00" points="0 82.6076 128 231.6616 51.846 82.6076"></polygon>
            <polygon fill="#EB6C00" points="204.1533 82.6076 128.0003 231.6616 255.9993 82.6076"></polygon>
            <polygon fill="#FDAD00" points="51.8463 82.6076 128.0003 231.6616 204.1543 82.6076"></polygon>
            <polygon fill="#FDD231" points="55.8548 7.6282 51.8458 82.6072 127.9998 0.0002"></polygon>
            <polygon fill="#FDD231" points="204.1533 82.6076 200.1453 7.6276 128.0003 0.0006"></polygon>
            <polygon fill="#FDAD00" points="204.1542 82.6076 255.9992 82.6076 200.1452 7.6276"></polygon>
            <polygon fill="#FDAD00" points="0 82.6076 51.846 82.6076 55.855 7.6276"></polygon>
            <polygon fill="#FEEEB7" points="127.9998 0.0002 51.8458 82.6072 204.1538 82.6072"></polygon>
        </symbol>
        <symbol id="express" viewBox="0 0 68 64" fill="none" fill-rule="evenodd">
            <text fill="#000" font-family="Futura-Medium, Futura" font-size="12.5" font-weight="400" letter-spacing=".5">
                <tspan x="2.656" y="36">Express</tspan>
            </text>
            <rect width="16" height="16" x="50" y="21" fill="#FC0"/>
            <text fill="#000" font-family="Futura-Bold, Futura" font-size="9" font-weight="bold" letter-spacing=".333">
                <tspan x="54.875" y="35">JS</tspan>
            </text>
        </symbol>
        <symbol id="mysql" viewBox="0 0 68 64" fill="none" fill-rule="evenodd" transform="translate(0 -1)">
            <polygon points="0 0 68 0 68 65 0 65"/>
            <path fill="#5D87A1" fill-rule="nonzero" d="M20.7921992,54.0534529 L18.8996105,54.0534529 C18.8326842,49.8006662 18.6483625,45.8025112 18.3470112,42.0560666 L18.3301882,42.0560666 L15.448699,54.0534529 L14.0077715,54.0534529 L11.143471,42.0560666 L11.1270137,42.0560666 C10.9145318,45.6530429 10.7806791,49.6521717 10.7250901,54.0534529 L9,54.0534529 C9.11117816,48.7013197 9.39058643,43.6836643 9.83712765,39 L12.1828405,39 L14.9129226,50.0611403 L14.9297456,50.0611403 L17.6766508,39 L19.9210598,39 C20.4125843,44.4860218 20.7029641,49.504164 20.7921992,54.0534529 Z M29,42.947034 C28.229433,48.5138757 27.2127379,52.55877 25.9510121,55.0836643 C24.9679631,57.0272389 23.8909247,58 22.7180683,58 C22.4053797,58 22.0195476,57.8743882 21.5624006,57.6251121 L21.5624006,56.2828187 C21.785854,56.325663 22.0480736,56.3500064 22.3494249,56.3500064 C22.8972699,56.3500064 23.3375939,56.149417 23.6733227,55.7472646 C24.0748807,55.257476 24.2756597,54.706829 24.2756597,54.0977578 C24.2756597,53.6800256 24.1191325,52.8260602 23.8068097,51.5329404 L21.7298992,42.9465471 L23.5892077,42.9465471 L25.0798727,49.368328 C25.4148701,50.8264958 25.5545742,51.8445356 25.4986194,52.4243946 C26.313804,49.526073 26.8832264,46.3658168 27.2076179,42.9460602 L29,42.9460602 L29,42.947034 Z"/>
            <path fill="#F8981D" fill-rule="nonzero" d="M55,53.9843539 L49.6245734,53.9843539 L49.6245734,39.2196629 L51.4328376,39.2196629 L51.4328376,52.166882 L55,52.166882 L55,53.9843539 Z M48.2174549,54.3410674 L46.1389566,53.0016011 C46.3232569,52.8039045 46.4995124,52.5899719 46.6582155,52.3421348 C47.541687,50.9869101 47.9823257,48.9827247 47.9823257,46.3281461 C47.9823257,41.4435112 46.5145051,39 43.5777669,39 C42.1377377,39 41.0143832,39.6198315 40.2109946,40.8599719 C39.3282545,42.2161517 38.8876158,44.2131742 38.8876158,46.853427 C38.8876158,49.4487921 39.278157,51.3526966 40.0596051,52.5603652 C40.7745002,53.654382 41.8521453,54.2021067 43.2932716,54.2021067 C43.8308142,54.2021067 44.3241102,54.1161517 44.7735251,53.942809 L47.4795222,56 L48.2174549,54.3410674 Z M41.484276,51.0298876 C41.0264505,50.0681461 40.7975378,48.5238202 40.7975378,46.3945225 C40.7975378,42.6769663 41.6623598,40.8160393 43.3938323,40.8160393 C44.2988786,40.8160393 44.9622136,41.2610955 45.3863969,42.1492978 C45.843491,43.1124719 46.0735007,44.6429494 46.0735007,46.7426404 C46.0735007,50.4907584 45.2079473,52.3650562 43.4775719,52.3650562 C42.5721599,52.3655337 41.908825,51.9219101 41.484276,51.0298876 Z M38.0995856,49.8919382 C38.0995856,51.1440169 37.7478059,52.1711798 37.0449781,52.9758146 C36.3414188,53.7771067 35.3979766,54.1787079 34.2157484,54.1787079 C33.1099464,54.1787079 32.0377864,53.7174157 31,52.7996067 L31.4859824,51.5317697 C32.3789615,52.1157865 33.1874695,52.4061236 33.913335,52.4061236 C34.594588,52.4061236 35.1270112,52.2089045 35.5131643,51.817809 C35.8989517,51.4252809 36.1289615,50.874691 36.1289615,50.1784551 C36.1289615,49.301236 35.6605314,48.5515169 34.8011945,47.9235674 C34.0087762,47.355309 32.4239395,46.1672191 32.4239395,46.1672191 C31.5649683,45.349691 31.1349342,44.4719944 31.1349342,43.0260393 C31.1349342,41.8293539 31.4556314,40.8633146 32.0973915,40.1283989 C32.739883,39.390618 33.5688688,39.0229213 34.5850804,39.0229213 C35.6345685,39.0229213 36.5886153,39.3901404 37.4479522,40.1169382 L37.0120673,41.3852528 C36.27706,40.9774438 35.5515602,40.7735393 34.8359337,40.7735393 C34.2563384,40.7735393 33.8087518,40.9554775 33.4975622,41.3207865 C33.1838128,41.6846629 32.9903706,42.1502528 32.9903706,42.7213764 C32.9903706,43.5942978 33.4686738,44.3535674 34.3514139,44.9939326 C35.1544369,45.5631461 36.7787665,46.7717697 36.7787665,46.7717697 C37.6596782,47.5878652 38.0995856,48.4574438 38.0995856,49.8919382 Z"/>
            <path fill="#5D87A1" fill-rule="nonzero" d="M54.4208458,31.1092799 C53.3321506,31.0726317 52.4892311,31.2177779 51.7817613,31.6141574 C51.5774944,31.7221733 51.2527064,31.7221733 51.2243056,32.0640626 C51.3346316,32.2087267 51.3473755,32.442118 51.443137,32.6417544 C51.6062592,33.0019679 51.8906308,33.4865925 52.1502427,33.7392723 C52.4353425,34.0286004 52.7215346,34.3150352 53.021563,34.5672329 C53.5506179,35.0007428 54.1503105,35.2529405 54.6658932,35.6850038 C54.9662857,35.936237 55.2648577,36.2612489 55.5656143,36.5317707 C55.7134438,36.6759525 55.8081129,36.9098261 56,37 L56,36.9450277 C55.9038744,36.7830039 55.876566,36.5486482 55.782261,36.3683003 L55.3737272,35.8465453 C54.9790297,35.1444425 54.4885707,34.5315491 53.9595158,34.0281182 C53.5240377,33.6307743 52.5715204,33.0906952 52.3949261,32.426205 L52.3672535,32.3895567 C52.6665537,32.3524263 53.021563,32.2087267 53.3059345,32.0982998 C53.768721,31.9367583 54.190727,31.9734065 54.6655291,31.811865 C54.8839964,31.739533 55.1006431,31.6488768 55.3198386,31.5596673 L55.3198386,31.3971614 C55.0736988,31.0726317 54.8981968,30.6415328 54.6393131,30.334845 C53.9467718,29.5425683 53.1835929,28.7676512 52.3949261,28.119074 C51.972556,27.7578961 51.4293008,27.5254692 50.9796223,27.2182992 C50.8175924,27.1098012 50.5445083,27.0562755 50.449111,26.8759276 C50.2051559,26.4795481 50.0678856,25.9577931 49.8909271,25.4885994 C49.497686,24.4986151 49.1157324,23.4001327 48.77638,22.3532472 C48.5309684,21.6511444 48.3816824,20.9500059 48.0823823,20.3004644 C46.6805507,17.2384086 45.158198,15.3838155 42.8184136,13.5634596 C42.3155748,13.1844398 41.7173386,13.0228982 41.0783218,12.8242263 L40.0577156,12.7528587 C39.8399766,12.6265187 39.6218734,12.2836649 39.4318069,12.1216412 C38.6555199,11.4735463 36.6569086,10.0688584 36.0859808,11.9234515 C35.7182276,13.0957125 36.6299643,14.2482027 36.9431007,14.842772 C37.1743119,15.2555467 37.4739761,15.7252227 37.6356419,16.1939342 C37.7314034,16.5001398 37.7583477,16.8251517 37.8541092,17.1487169 C38.0718482,17.9414759 38.2753869,18.8234444 38.561579,19.5631599 C38.7108649,19.9402509 38.8736231,20.3366304 39.0644178,20.6780375 C39.1736514,20.8776739 39.3637179,20.965919 39.4052267,21.2914131 C39.2155243,21.6501799 39.2005957,22.1917057 39.0917262,22.6420931 C38.6023595,24.6775163 38.7935184,27.1990107 39.4871519,28.6948369 C39.7041628,29.1452243 40.2219302,30.1366553 40.9144714,29.756671 C41.5276362,29.4326236 41.3918224,28.405991 41.5680526,27.5056984 C41.6084691,27.2882202 41.5818889,27.145485 41.66345,27.0027498 L41.66345,27.0379513 C41.8531524,27.5418645 42.0446754,28.0274534 42.2205415,28.5328132 C42.6425474,29.4147817 43.3773257,30.3338806 43.9893981,30.9448451 C44.3152785,31.2708214 44.5734339,31.8282602 44.9816036,32.0274144 L44.9816036,31.9734065 L44.9546593,31.9734065 C44.8720059,31.811865 44.7511206,31.739533 44.6426152,31.6141574 C44.3972037,31.2896278 44.125576,30.8932483 43.9351454,30.533517 C43.3649459,29.5242441 42.8602865,28.4069555 42.4124286,27.253983 C42.1932331,26.6946153 42.0042589,26.0831686 41.8276646,25.5247654 C41.7453752,25.309216 41.7453752,24.9842041 41.6088332,24.875706 C41.4042022,25.2716033 41.1059944,25.6144571 40.9567084,26.0995639 C40.6978247,26.8754454 40.6708804,27.8297459 40.5747548,28.8221413 L40.5212303,28.8568607 C40.0879369,28.7126788 39.9371945,28.119074 39.7726158,27.6151609 C39.3651744,26.3353663 39.2967213,24.2811368 39.6502742,22.804599 C39.7449433,22.4270259 40.1545694,21.2378874 39.9910831,20.8781561 C39.9091579,20.5333735 39.636802,20.3371126 39.4875161,20.0656264 C39.312014,19.7242192 39.1197628,19.2921559 38.9974212,18.9131361 C38.6711767,17.9048277 38.5069622,16.787539 38.155594,15.7797128 C37.9913794,15.3100369 37.7062796,14.8239657 37.4754326,14.3914201 C37.2161848,13.9053489 36.931085,13.5629774 36.7260899,12.9867322 C36.658365,12.7885425 36.5633317,12.464495 36.6722013,12.2489456 C36.6987815,12.1042815 36.7541265,12.0502736 36.8626319,12.0141076 C37.0388622,11.8168823 37.5424292,12.0676333 37.7190236,12.1761313 C38.2233188,12.4461709 38.6449607,12.6983686 39.0658742,13.0764239 C39.2563049,13.257254 39.4605718,13.5996256 39.704891,13.6897995 L39.9910831,13.6897995 C40.4254688,13.815175 40.9151996,13.7245189 41.3240975,13.887507 C42.0446754,14.1941948 42.6975284,14.6441 43.2830206,15.129689 C45.0646212,16.6259975 46.5338135,18.7520768 47.5256549,21.2914131 C47.688413,21.7051523 47.7575943,22.0841721 47.906152,22.5157532 C48.1927083,23.3991683 48.5469893,24.2999431 48.8313609,25.1645519 C49.1171889,26.0108366 49.3895447,26.8749632 49.7977144,27.5780305 C50.0012531,27.9560858 50.8190489,28.1542756 51.1857098,28.3524653 C51.4569733,28.5140069 51.8793433,28.6577065 52.1240266,28.8558962 C52.5868131,29.2334694 53.0477791,29.6669793 53.482893,30.0821652 C53.6995397,30.2981968 54.3804294,30.7485842 54.4208458,31.1092799 M40.5459899,15.4547009 C40.3582008,15.4521159 40.1709853,15.4826016 39.9892625,15.545357 L39.9892625,15.5815231 L40.0154786,15.5815231 C40.1250764,15.8694045 40.315507,16.0690409 40.4513208,16.3202741 C40.5609185,16.60912 40.6559518,16.8955548 40.7633649,17.1839185 L40.7895809,17.1482347 C40.981468,16.9683691 41.0768654,16.6800054 41.0768654,16.2474599 C40.9942119,16.1201555 40.981468,15.9957445 40.9126508,15.8694045 C40.8325462,15.6890567 40.6559518,15.599365 40.5459899,15.4547009"/>
            <path fill="#F8981D" fill-rule="nonzero" d="M55.8095004,53 L56,53 L56,52.0002639 L55.7142506,52.0002639 L55.4811715,52.682502 L55.2279104,52.0002639 L54.9527443,52.0002639 L54.9527443,53 L55.1326606,53 L55.1326606,52.2393771 L55.1427517,52.2393771 L55.4080729,53 L55.5451637,53 L55.8095004,52.2393771 L55.8095004,53 Z M54.27492,53 L54.4764952,53 L54.4764952,52.1697018 L54.7403397,52.1697018 L54.7403397,52 L54,52 L54,52.1697018 L54.2744278,52.1697018 L54.27492,53 Z"/>
        </symbol>
        <symbol id="heroku" viewBox="0 0 68 64" fill="none" transform="translate(8)">
            <path fill="#6762A6" d="M45.8509264,64 L6.1488704,64 C2.75254311,64 0,61.2675436 0,57.8966062 L0,6.10359555 C0,2.73265816 2.75274633,0 6.14866719,0 L45.8507232,0 C49.2464408,0 52,2.73265816 52,6.10359555 L52,57.8966062 C52,61.2675436 49.2464408,64 45.8507232,64 L45.8509264,64 Z"/>
            <path fill="#FFF" d="M34.0871887,55 L34.0871887,29.8435628 C34.0871887,29.8435628 35.7957549,23.823509 13.0416978,32.3062939 C13,32.4139161 13,9.04392742 13,9.04392742 L20.4347127,9 L20.4347127,23.9734612 C20.4347127,23.9734612 41.2514914,16.1214342 41.2514914,29.9284226 L41.2514914,55 L34.0873972,55 L34.0871887,55 Z M38.3236823,18.0622276 L30.4377997,18.0622276 C33.2763755,14.738519 35.8460007,9.04372775 35.8460007,9.04372775 L44,9.04372775 C44,9.04372775 42.6039586,12.7549961 38.3238908,18.0622276 L38.3236823,18.0622276 Z M13.1351008,54.9564719 L13.1351008,40.6305408 L20.6152641,47.7941054 L13.1351008,54.9564719 Z"/>
        </symbol>
        <symbol id="vscode" viewBox="0 0 68 64">
            <path fill="#0179CB" d="M22.4269231,39.1731178 L6.81153846,51.4776691 L0,48.0476393 L0,15.9795832 L6.78461538,12.5223309 L22.2923077,24.8541046 L46.8461538,0 L63,6.50616759 L63,57.3849426 L46.9269231,64 L22.4269231,39.1731178 Z M46.3615385,43.5014887 L46.3615385,20.4985113 L31.6615385,32.0136112 L46.3615385,43.5014887 Z M7.35,39.363675 L15.0769231,32.2586134 L7.35,24.4729902 L7.35,39.363675 Z" transform="translate(3)"/>
        </symbol>
    </defs>
</svg>